<?xml version="1.0" encoding="UTF-8"?>
<svg xmlns="http://www.w3.org/2000/svg" xmlns:xlink="http://www.w3.org/1999/xlink" width="22px" height="24px" viewBox="0 0 22 24" version="1.1">
<g id="surface1">
<path style=" stroke:none;fill-rule:nonzero;fill:rgb(100%,60%,0%);fill-opacity:1;" d="M 1.144531 1.191406 C 1.003906 1.289062 1.003906 1.296875 1.003906 2.292969 L 1.003906 3.207031 L 1.167969 3.386719 L 5.816406 3.386719 L 5.816406 2.667969 L 5.300781 2.667969 C 4.84375 2.667969 4.765625 2.660156 4.679688 2.617188 C 4.542969 2.546875 4.449219 2.410156 4.449219 2.273438 C 4.449219 2.136719 4.574219 1.96875 4.710938 1.925781 C 4.851562 1.878906 17.097656 1.878906 17.238281 1.925781 C 17.378906 1.96875 17.503906 2.136719 17.503906 2.273438 C 17.503906 2.40625 17.417969 2.539062 17.28125 2.613281 C 17.195312 2.660156 17.136719 2.667969 16.660156 2.667969 L 16.132812 2.667969 L 16.132812 3.386719 L 18.449219 3.386719 C 20.632812 3.382812 20.769531 3.382812 20.816406 3.339844 C 20.945312 3.222656 20.949219 3.1875 20.949219 2.261719 C 20.949219 1.460938 20.945312 1.394531 20.902344 1.324219 C 20.878906 1.28125 20.824219 1.222656 20.789062 1.199219 C 20.71875 1.148438 20.476562 1.148438 10.964844 1.148438 C 1.988281 1.148438 1.207031 1.152344 1.144531 1.191406 Z M 2.820312 1.925781 C 3.023438 1.992188 3.121094 2.28125 3 2.46875 C 2.898438 2.632812 2.792969 2.667969 2.382812 2.667969 C 2.003906 2.667969 1.90625 2.644531 1.792969 2.523438 C 1.625 2.339844 1.703125 2.015625 1.941406 1.925781 C 2.046875 1.886719 2.699219 1.886719 2.820312 1.925781 Z M 19.996094 1.921875 C 20.246094 2.011719 20.332031 2.332031 20.15625 2.523438 C 20.042969 2.644531 19.949219 2.667969 19.566406 2.667969 C 19.160156 2.667969 19.050781 2.632812 18.949219 2.46875 C 18.835938 2.289062 18.925781 1.996094 19.117188 1.929688 C 19.230469 1.886719 19.894531 1.886719 19.996094 1.921875 Z M 19.996094 1.921875 "/>
<path style=" stroke:none;fill-rule:nonzero;fill:rgb(100%,60%,0%);fill-opacity:1;" d="M 6.503906 7.613281 L 6.503906 12.558594 L 6.558594 12.585938 C 6.585938 12.601562 6.640625 12.632812 6.679688 12.660156 C 6.929688 12.839844 7.144531 12.964844 7.164062 12.941406 C 7.175781 12.929688 7.183594 10.953125 7.183594 7.796875 L 7.175781 2.679688 L 6.503906 2.664062 Z M 6.503906 7.613281 "/>
<path style=" stroke:none;fill-rule:nonzero;fill:rgb(100%,60%,0%);fill-opacity:1;" d="M 7.894531 8.058594 L 7.894531 13.453125 L 7.976562 13.511719 C 8.3125 13.757812 9.042969 14.214844 9.097656 14.214844 C 9.171875 14.214844 9.234375 14.15625 9.253906 14.070312 C 9.257812 14.039062 9.265625 13.398438 9.273438 12.652344 C 9.277344 11.339844 9.28125 11.289062 9.332031 11.160156 C 9.449219 10.851562 9.613281 10.613281 9.808594 10.460938 C 10.113281 10.222656 10.25 10.171875 10.632812 10.171875 C 10.945312 10.171875 10.980469 10.179688 11.246094 10.316406 C 11.375 10.382812 11.597656 10.574219 11.6875 10.703125 C 11.828125 10.894531 11.878906 11 11.957031 11.265625 C 12 11.417969 12.003906 11.535156 12.003906 13.40625 L 12.003906 15.386719 L 13.457031 15.386719 L 13.503906 15.273438 C 13.570312 15.128906 13.820312 14.855469 13.953125 14.785156 L 14.054688 14.734375 L 14.054688 2.667969 L 7.894531 2.667969 Z M 10.441406 4.953125 C 10.566406 5.042969 10.613281 5.136719 10.613281 5.28125 C 10.613281 5.402344 10.605469 5.429688 10.519531 5.523438 C 10.46875 5.578125 10.410156 5.625 10.386719 5.625 C 10.363281 5.625 10.289062 5.648438 10.21875 5.671875 C 10.058594 5.726562 9.949219 5.871094 9.949219 6.027344 C 9.949219 6.164062 10.058594 6.324219 10.1875 6.371094 C 10.316406 6.414062 10.390625 6.394531 10.511719 6.277344 C 10.589844 6.199219 10.609375 6.160156 10.621094 6.058594 C 10.664062 5.667969 10.734375 5.476562 10.894531 5.28125 C 11.101562 5.03125 11.347656 4.90625 11.648438 4.90625 C 12.050781 4.90625 12.433594 5.164062 12.578125 5.539062 C 12.617188 5.640625 12.644531 5.648438 12.9375 5.660156 C 13.183594 5.667969 13.253906 5.710938 13.34375 5.902344 L 13.402344 6.027344 L 13.34375 6.152344 C 13.253906 6.34375 13.183594 6.382812 12.9375 6.394531 C 12.636719 6.40625 12.625 6.410156 12.566406 6.542969 C 12.414062 6.886719 12.042969 7.148438 11.699219 7.148438 C 11.484375 7.148438 11.335938 6.996094 11.335938 6.769531 C 11.335938 6.652344 11.347656 6.625 11.429688 6.53125 C 11.480469 6.476562 11.542969 6.425781 11.566406 6.425781 C 11.585938 6.425781 11.664062 6.40625 11.734375 6.382812 C 11.890625 6.324219 12.003906 6.179688 12.003906 6.027344 C 12.003906 5.886719 11.890625 5.726562 11.761719 5.683594 C 11.636719 5.636719 11.558594 5.660156 11.441406 5.777344 C 11.363281 5.851562 11.34375 5.894531 11.328125 5.996094 C 11.285156 6.382812 11.21875 6.574219 11.054688 6.773438 C 10.917969 6.945312 10.796875 7.027344 10.605469 7.097656 C 10.121094 7.265625 9.5625 6.996094 9.371094 6.515625 C 9.332031 6.414062 9.304688 6.40625 9.015625 6.394531 C 8.765625 6.382812 8.699219 6.34375 8.605469 6.152344 L 8.550781 6.027344 L 8.605469 5.902344 C 8.699219 5.710938 8.765625 5.667969 9.015625 5.660156 C 9.304688 5.648438 9.332031 5.640625 9.371094 5.539062 C 9.46875 5.292969 9.71875 5.050781 9.964844 4.960938 C 10.148438 4.894531 10.355469 4.890625 10.441406 4.953125 Z M 13.222656 9.488281 C 13.269531 9.527344 13.324219 9.601562 13.347656 9.652344 C 13.394531 9.742188 13.394531 9.84375 13.394531 11.648438 C 13.394531 13.464844 13.394531 13.550781 13.347656 13.648438 C 13.269531 13.820312 13.191406 13.878906 13.042969 13.878906 C 12.929688 13.878906 12.898438 13.871094 12.832031 13.800781 C 12.683594 13.644531 12.6875 13.71875 12.6875 11.652344 C 12.6875 10.304688 12.695312 9.742188 12.714844 9.675781 C 12.746094 9.566406 12.8125 9.496094 12.929688 9.433594 C 13.035156 9.378906 13.109375 9.390625 13.222656 9.488281 Z M 13.222656 9.488281 "/>
<path style=" stroke:none;fill-rule:nonzero;fill:rgb(100%,60%,0%);fill-opacity:1;" d="M 14.78125 2.683594 C 14.773438 2.691406 14.765625 5.476562 14.765625 8.863281 C 14.765625 13.535156 14.757812 15.046875 14.734375 15.125 C 14.699219 15.257812 14.582031 15.359375 14.433594 15.390625 C 14.234375 15.429688 14.09375 15.582031 14.058594 15.792969 C 14.035156 15.9375 13.953125 16.070312 13.863281 16.113281 C 13.820312 16.136719 13.515625 16.152344 12.90625 16.160156 L 12.015625 16.171875 L 12.015625 16.894531 L 13.589844 16.902344 C 15.152344 16.90625 15.164062 16.90625 15.246094 16.851562 C 15.289062 16.820312 15.355469 16.753906 15.386719 16.699219 L 15.449219 16.601562 L 15.449219 2.667969 L 15.125 2.667969 C 14.941406 2.667969 14.789062 2.675781 14.78125 2.683594 Z M 14.78125 2.683594 "/>
<path style=" stroke:none;fill-rule:nonzero;fill:rgb(100%,60%,0%);fill-opacity:1;" d="M 3.21875 4.960938 C 3.179688 4.992188 3.132812 5.0625 3.105469 5.121094 C 3.058594 5.21875 3.054688 5.28125 3.054688 6.265625 C 3.054688 7.171875 3.050781 7.308594 3.019531 7.308594 C 3 7.308594 2.980469 7.296875 2.980469 7.28125 C 2.980469 7.269531 2.941406 7.234375 2.894531 7.203125 C 2.65625 7.046875 2.394531 7.226562 2.394531 7.542969 L 2.394531 7.6875 L 2.804688 8.136719 L 3.21875 8.585938 L 3.398438 8.585938 C 3.515625 8.585938 3.601562 8.574219 3.628906 8.550781 C 3.714844 8.488281 4.347656 7.777344 4.398438 7.691406 C 4.464844 7.585938 4.460938 7.460938 4.394531 7.347656 C 4.335938 7.246094 4.191406 7.148438 4.109375 7.148438 C 4.050781 7.148438 3.921875 7.210938 3.855469 7.273438 C 3.835938 7.292969 3.804688 7.304688 3.792969 7.292969 C 3.773438 7.28125 3.765625 6.953125 3.765625 6.269531 C 3.765625 5.132812 3.753906 5.0625 3.605469 4.960938 C 3.496094 4.886719 3.304688 4.886719 3.21875 4.960938 Z M 3.21875 4.960938 "/>
<path style=" stroke:none;fill-rule:nonzero;fill:rgb(100%,60%,0%);fill-opacity:1;" d="M 18.339844 4.960938 C 18.195312 5.0625 18.1875 5.136719 18.1875 6.269531 C 18.1875 6.953125 18.179688 7.28125 18.160156 7.292969 C 18.148438 7.304688 18.117188 7.292969 18.09375 7.273438 C 18.03125 7.210938 17.902344 7.148438 17.84375 7.148438 C 17.691406 7.148438 17.503906 7.359375 17.503906 7.527344 C 17.503906 7.652344 17.578125 7.757812 17.980469 8.191406 C 18.328125 8.566406 18.390625 8.613281 18.546875 8.613281 C 18.691406 8.613281 18.78125 8.542969 19.175781 8.105469 L 19.554688 7.683594 L 19.554688 7.546875 C 19.554688 7.464844 19.539062 7.375 19.515625 7.328125 C 19.46875 7.242188 19.320312 7.148438 19.238281 7.148438 C 19.179688 7.148438 19.003906 7.238281 18.980469 7.28125 C 18.972656 7.292969 18.949219 7.308594 18.929688 7.308594 C 18.902344 7.308594 18.894531 7.15625 18.894531 6.273438 C 18.894531 5.324219 18.890625 5.230469 18.847656 5.128906 C 18.78125 4.96875 18.695312 4.90625 18.542969 4.90625 C 18.460938 4.90625 18.390625 4.925781 18.339844 4.960938 Z M 18.339844 4.960938 "/>
<path style=" stroke:none;fill-rule:nonzero;fill:rgb(100%,60%,0%);fill-opacity:1;" d="M 5.75 9.511719 C 5.71875 9.5625 5.695312 9.613281 5.695312 9.625 C 5.695312 9.65625 5.523438 10.089844 5.496094 10.117188 C 5.484375 10.132812 5.476562 10.160156 5.476562 10.179688 C 5.476562 10.199219 5.441406 10.292969 5.398438 10.390625 C 5.320312 10.582031 5.277344 10.6875 5.222656 10.832031 C 5.203125 10.878906 5.171875 10.960938 5.152344 11.011719 C 5.128906 11.0625 5.078125 11.1875 5.039062 11.289062 C 4.996094 11.386719 4.960938 11.484375 4.960938 11.5 C 4.960938 11.519531 4.953125 11.546875 4.941406 11.5625 C 4.914062 11.59375 4.726562 12.066406 4.667969 12.265625 C 4.601562 12.460938 4.523438 12.9375 4.523438 13.097656 C 4.523438 13.234375 4.550781 13.40625 4.707031 14.238281 C 4.722656 14.335938 4.757812 14.515625 4.777344 14.640625 C 4.800781 14.765625 4.835938 14.9375 4.851562 15.027344 C 4.871094 15.113281 4.902344 15.289062 4.925781 15.414062 C 4.949219 15.539062 4.980469 15.71875 5 15.8125 C 5.015625 15.910156 5.050781 16.089844 5.070312 16.214844 C 5.09375 16.339844 5.128906 16.515625 5.144531 16.613281 C 5.164062 16.710938 5.195312 16.882812 5.21875 17 C 5.253906 17.203125 5.289062 17.382812 5.367188 17.785156 C 5.382812 17.882812 5.417969 18.0625 5.4375 18.1875 C 5.460938 18.3125 5.496094 18.492188 5.511719 18.585938 C 5.53125 18.683594 5.5625 18.863281 5.585938 18.988281 C 5.609375 19.113281 5.636719 19.265625 5.652344 19.332031 C 5.667969 19.398438 5.6875 19.507812 5.699219 19.574219 C 5.707031 19.640625 5.734375 19.789062 5.757812 19.90625 C 5.789062 20.058594 5.804688 20.300781 5.816406 20.746094 L 5.828125 21.375 L 10.621094 21.375 L 10.636719 20.761719 C 10.644531 20.421875 10.660156 20.105469 10.675781 20.054688 C 10.691406 20.003906 10.714844 19.917969 10.734375 19.867188 C 10.75 19.816406 10.773438 19.730469 10.792969 19.679688 C 10.808594 19.628906 10.835938 19.542969 10.851562 19.492188 C 10.867188 19.441406 10.890625 19.363281 10.902344 19.320312 C 10.914062 19.273438 10.933594 19.203125 10.949219 19.160156 C 11.027344 18.929688 11.191406 18.335938 11.226562 18.160156 C 11.347656 17.566406 11.34375 17.703125 11.34375 14.507812 C 11.34375 11.574219 11.34375 11.496094 11.292969 11.382812 C 11.226562 11.214844 11.0625 11.023438 10.933594 10.960938 C 10.722656 10.859375 10.398438 10.902344 10.226562 11.058594 C 10.148438 11.128906 10.050781 11.289062 10.015625 11.390625 C 9.996094 11.449219 9.984375 11.917969 9.976562 12.851562 L 9.960938 14.226562 L 9.878906 14.40625 C 9.835938 14.5 9.757812 14.628906 9.703125 14.691406 C 9.574219 14.835938 9.316406 14.964844 9.125 14.980469 C 8.921875 14.996094 8.777344 14.941406 8.421875 14.710938 C 8.261719 14.601562 8.109375 14.507812 8.089844 14.5 C 8.070312 14.488281 8.023438 14.457031 7.980469 14.425781 C 7.941406 14.398438 7.886719 14.363281 7.859375 14.347656 C 7.832031 14.332031 7.777344 14.296875 7.738281 14.265625 C 7.699219 14.238281 7.644531 14.207031 7.625 14.195312 C 7.605469 14.1875 7.546875 14.148438 7.492188 14.109375 C 7.4375 14.070312 7.371094 14.03125 7.34375 14.011719 C 7.320312 13.996094 6.996094 13.785156 6.628906 13.550781 C 6.160156 13.242188 5.941406 13.085938 5.894531 13.019531 L 5.828125 12.925781 L 5.816406 11.171875 L 5.804688 9.425781 Z M 6.332031 16.257812 C 6.371094 16.296875 6.410156 16.363281 6.417969 16.398438 C 6.425781 16.4375 6.449219 16.523438 6.464844 16.601562 C 6.484375 16.671875 6.515625 16.816406 6.535156 16.921875 C 6.605469 17.269531 6.652344 17.507812 6.6875 17.652344 C 6.703125 17.734375 6.738281 17.890625 6.757812 18 C 6.78125 18.109375 6.816406 18.273438 6.832031 18.367188 C 6.914062 18.765625 6.960938 18.988281 7.039062 19.390625 C 7.089844 19.636719 7.011719 19.804688 6.816406 19.882812 C 6.699219 19.929688 6.59375 19.917969 6.507812 19.851562 C 6.449219 19.808594 6.355469 19.609375 6.355469 19.53125 C 6.355469 19.503906 6.339844 19.425781 6.320312 19.347656 C 6.300781 19.273438 6.265625 19.117188 6.246094 19 C 6.222656 18.882812 6.1875 18.71875 6.171875 18.640625 C 6.15625 18.558594 6.121094 18.402344 6.097656 18.292969 C 6.078125 18.183594 6.042969 18.019531 6.027344 17.933594 C 6.007812 17.84375 5.972656 17.683594 5.953125 17.574219 C 5.902344 17.328125 5.847656 17.058594 5.816406 16.925781 C 5.730469 16.566406 5.742188 16.382812 5.859375 16.261719 C 5.949219 16.171875 5.980469 16.160156 6.128906 16.171875 C 6.234375 16.175781 6.273438 16.195312 6.332031 16.257812 Z M 6.332031 16.257812 "/>
<path style=" stroke:none;fill-rule:nonzero;fill:rgb(100%,60%,0%);fill-opacity:1;" d="M 4.457031 22.195312 C 4.453125 22.214844 4.453125 22.378906 4.453125 22.5625 L 4.460938 22.894531 L 11.988281 22.894531 L 11.988281 22.171875 L 8.230469 22.164062 C 5.152344 22.160156 4.46875 22.164062 4.457031 22.195312 Z M 4.457031 22.195312 "/>
</g>
</svg>
