<svg xmlns="http://www.w3.org/2000/svg" width="22" height="24" viewBox="0 0 22 24"><g><g clip-path="url(#clip-025bc12f-333f-4af6-8c84-9b2352e639dc)"><path fill="#ff822f" d="M6.201 16.8c-.662 0-1.207.538-1.207 1.2 0 .663.545 1.2 1.207 1.2h9.591c.663 0 1.207-.537 1.207-1.2 0-.662-.544-1.2-1.207-1.2zm0-1.2h9.591c.663 0 1.207-.537 1.207-1.2 0-.663-.544-1.2-1.207-1.2h-9.59c-.663 0-1.208.537-1.208 1.2 0 .663.545 1.2 1.207 1.2zm1.19-8.4h7.21v1.201h-7.21zm0-2.4a2.397 2.397 0 0 0-2.397 2.4v1.201c0 1.325 1.07 2.4 2.398 2.4h7.21a2.397 2.397 0 0 0 2.397-2.4v-1.2c0-1.326-1.07-2.401-2.397-2.401zm12.004 15.6c0 .662-.542 1.2-1.208 1.2H3.805a1.206 1.206 0 0 1-1.207-1.2V3.602c0-.663.545-1.2 1.207-1.2h14.383c.666 0 1.208.537 1.208 1.2zM3.804 24h14.383a3.603 3.603 0 0 0 3.606-3.6V3.602a3.603 3.603 0 0 0-3.605-3.6H3.803A3.603 3.603 0 0 0 .2 3.6v16.8c0 1.987 1.614 3.6 3.604 3.6z"/></g></g></svg>