<?xml version="1.0" encoding="UTF-8"?>
<svg id="SVGDoc" width="18" height="15" xmlns="http://www.w3.org/2000/svg" version="1.1" xmlns:xlink="http://www.w3.org/1999/xlink" xmlns:avocode="https://avocode.com/" viewBox="0 0 18 15"><defs></defs><desc>Generated with Avocode.</desc><g><g clip-path="url(#clip-a8f31956-6b29-4c0e-a055-8ad63006dd58)"><title>Trazado 349</title><path d="M13.03052,7.03219l3.25342,-2.52966v5.24045zM6.58862,8.1637l0.8418,0.65057c0.96972,0.759 2.33545,0.759 3.31738,0l0.8291,-0.65057l4.63086,3.8602c-0.14062,0.31891 -0.45947,0.54083 -0.81689,0.54083h-12.60352c-0.36963,0 -0.68896,-0.22192 -0.82959,-0.54083zM5.13452,7.0322l-3.25293,2.71078v-5.24045zM1.95776,2.28543c0.15381,-0.30872 0.45996,-0.52429 0.82959,-0.52429h12.60352c0.35742,0 0.66309,0.21558 0.81689,0.52429l-6.5708,5.10776c-0.33105,0.25259 -0.77734,0.25259 -1.10937,0zM2.78735,-0.03885c-1.49268,0 -2.70459,1.20938 -2.70459,2.70059v9.00238c0,1.49255 1.21191,2.70056 2.70459,2.70056h12.60352c1.47949,0 2.69189,-1.20801 2.69189,-2.70056v-9.00238c0,-1.49121 -1.2124,-2.70059 -2.69189,-2.70059z" fill="#ffffff" fill-opacity="1"></path></g></g></svg>