<svg xmlns="http://www.w3.org/2000/svg" width="24" height="24" viewBox="0 0 24 24"><g><g clip-path="url(#clip-02b07ccc-ae34-44b8-927e-47855b150eec)"><path fill="#ff822f" d="M18.555 8.165c0-.311-.172-.587-.512-.763-.17-.177-.512-.24-.852-.179l-3.234.634c-.508.13-1.02.762-.852 1.412.17.647.682 1.069 1.364.942l-2.043 2.604L9.87 10.88c-.508-.389-1.19-.309-1.53.182L5.108 14.83c-.341.508-.341 1.265.17 1.69.512.426 1.19.36 1.702-.148l2.384-2.887 2.553 1.962c.51.4 1.36.302 1.703-.218l3.235-4.02v.592c.17.65.851 1.072 1.529.942.512-.13 1.023-.761.851-1.413zM2.385 4.8c0-1.324 1.19-2.4 2.38-2.4h14.47c1.36 0 2.382 1.076 2.382 2.4v14.4c0 1.325-1.021 2.4-2.383 2.4H4.766c-1.192 0-2.381-1.075-2.381-2.4zM4.765 0C2.212 0 0 2.15 0 4.8v14.4C0 21.851 2.21 24 4.766 24h14.468C21.96 24 24 21.851 24 19.2V4.8C24 2.15 21.959 0 19.234 0z"/></g></g></svg>