<?xml version="1.0" encoding="UTF-8"?>
<svg id="SVGDoc" width="18" height="18" xmlns="http://www.w3.org/2000/svg" version="1.1" xmlns:xlink="http://www.w3.org/1999/xlink" xmlns:avocode="https://avocode.com/" viewBox="0 0 18 18"><defs></defs><desc>Generated with Avocode.</desc><g><g clip-path="url(#clip-c3dc02f4-7ae0-4c7f-8481-8b6871f8465e)"><title>Trazado 1509</title><path d="M13.01953,3.60004c-0.76367,0 -1.27344,0.60446 -1.27344,1.35046c0,0.74603 0.50977,1.35052 1.27344,1.35052c0.76563,0 1.40234,-0.60449 1.40234,-1.35052c0,-0.746 -0.63672,-1.35046 -1.40234,-1.35046zM8.93359,5.4007c-1.91602,0 -3.57227,1.61188 -3.57227,3.59998c0,1.98813 1.65625,3.60004 3.57227,3.60004c2.04297,0 3.70117,-1.61191 3.70117,-3.60004c0,-1.9881 -1.6582,-3.59998 -3.70117,-3.59998zM8.9336,7.20001c1.02344,0 1.91602,0.806 1.91602,1.80066c0,0.99347 -0.89258,1.79941 -1.91602,1.79941c-0.89258,0 -1.78516,-0.80594 -1.78516,-1.79941c0,-0.99466 0.89258,-1.80066 1.78516,-1.80066zM12.63477,1.80069c1.91601,0 3.57617,1.61191 3.57617,3.60001v7.20001c0,1.98809 -1.66015,3.59869 -3.57617,3.59869h-7.27344c-1.91211,0 -3.57422,-1.61059 -3.57422,-3.59869v-7.20001c0,-1.9881 1.66211,-3.60001 3.57422,-3.60001zM0,12.60071c0,2.9815 2.42578,5.39935 5.36133,5.39935h7.27344c2.93945,0 5.36523,-2.41784 5.36523,-5.39935v-7.20001c0,-2.98278 -2.42578,-5.40063 -5.36523,-5.40063h-7.27344c-2.93555,0 -5.36133,2.41784 -5.36133,5.40063z" fill="#ffffff" fill-opacity="1"></path></g></g></svg>