<svg xmlns="http://www.w3.org/2000/svg" width="24" height="24" viewBox="0 0 24 24"><g><g clip-path="url(#clip-99dae5dd-bde8-4fa2-89bb-3d5856f8ba6f)"><path fill="#ff822f" d="M12.117 6c-.681 0-1.363.534-1.363 1.192v.425a2.767 2.767 0 0 0-2.379 2.755c0 1.535 1.36 2.782 2.89 2.782h1.53c.342 0 .51.177.51.396 0 .22-.168.396-.51.396h-2.719c-.681 0-1.191.534-1.191 1.194 0 .658.51 1.192 1.191 1.192h.678v.396c0 .66.682 1.193 1.363 1.193.51 0 1.188-.533 1.188-1.193v-.424a2.767 2.767 0 0 0 2.383-2.754c0-1.537-1.362-2.782-2.893-2.782h-1.53c-.17 0-.511-.178-.511-.396 0-.22.342-.398.512-.398h2.72c.682 0 1.192-.534 1.192-1.192 0-.658-.51-1.192-1.192-1.192h-.681v-.398c0-.658-.678-1.192-1.188-1.192zm-1.531-1.697l1.531-1.423 1.36 1.423c.34.294.68.41 1.191.305l1.87-.505.679 1.957c0 .404.34.72.68.835l2.04.545-.51 1.97c-.171.406 0 .838.34 1.137L21.13 12l-1.361 1.452c-.34.3-.512.731-.34 1.137l.51 1.97-2.041.547c-.34.112-.68.429-.68.833l-.68 1.957-1.869-.505c-.512-.105-.852.01-1.191.305l-1.36 1.423-1.531-1.423c-.342-.294-.682-.41-1.191-.305l-1.87.505-.51-1.957c-.171-.404-.511-.72-.849-.833l-2.041-.547.51-1.97c.168-.406 0-.838-.342-1.137L2.933 12l1.36-1.454c.342-.3.51-.731.342-1.138l-.51-1.969 2.041-.545c.338-.114.678-.43.85-.835l.51-1.957 1.869.505c.51.105.85-.01 1.191-.305zm2.209-3.96c-.34-.457-1.19-.457-1.53 0l-1.87 1.772-2.38-.63c-.681-.163-1.36.21-1.53.839l-.682 2.44-2.38.68A1.16 1.16 0 0 0 1.575 6.9l.51 2.452L.383 11.16a1.112 1.112 0 0 0 0 1.678l1.701 1.81-.51 2.453a1.16 1.16 0 0 0 .85 1.454l2.379.68.681 2.44c.17.629.85 1.001 1.532.84l2.379-.63 1.87 1.77c.34.458 1.19.458 1.53 0l1.873-1.77 2.549.63c.51.161 1.19-.211 1.361-.84l.678-2.44 2.383-.68a1.16 1.16 0 0 0 .85-1.454l-.51-2.454 1.7-1.809c.51-.466.51-1.212 0-1.678l-1.7-1.81.51-2.451c.17-.635-.17-1.28-.85-1.456l-2.383-.68-.678-2.44c-.172-.63-.851-1.002-1.361-.838l-2.549.629z"/></g></g></svg>