<svg xmlns="http://www.w3.org/2000/svg" width="24" height="22" viewBox="0 0 24 22"><g><g clip-path="url(#clip-953f5c09-1740-4a6a-8b63-6b1c289f013f)"><path fill="#ff822f" d="M20.635 5.997L11.939 9.53 3.412 5.997l8.527-3.532zm-9.38 10.702c.509.172 1.024.172 1.364 0l5.285-2.149 2.73 1.115L11.94 19.2l-8.527-3.534L6.14 14.55zm0-4.835c.509.173 1.024.173 1.364 0l5.285-2.148 2.73 1.115-8.695 3.533-8.527-3.533L6.14 9.716zm-10.23-7.55c-1.367.607-1.367 2.759 0 3.366l1.875.735-1.875.733c-1.367.609-1.367 2.76 0 3.366l1.875.735-1.875.733c-1.367.61-1.367 2.76 0 3.366l10.23 4.185c.509.172 1.024.172 1.364 0l10.23-4.185c1.536-.607 1.536-2.757 0-3.366l-1.706-.733 1.707-.735c1.535-.607 1.535-2.757 0-3.366l-1.707-.733 1.707-.735c1.535-.607 1.535-2.758 0-3.366L12.62.13c-.34-.174-.856-.174-1.364 0z"/></g></g></svg>