<svg xmlns="http://www.w3.org/2000/svg" width="24" height="22" viewBox="0 0 24 22"><g><g clip-path="url(#clip-cdb8c01a-d139-48a8-a5e7-a69a0dddcaed)"><path fill="#ff822f" d="M10.436 13.229v.029c0 .828.646 1.463 1.495 1.463.85 0 1.48-.635 1.48-1.463v-.03c0-.827-.63-1.463-1.48-1.463s-1.495.636-1.495 1.464zm1.597-1.934c.562 0 .953-.44 1.02-.906l.018-.097c.747-.167 1.427-.439 1.954-.901.561-.505.918-1.215.918-2.193V7.17c0-1.021-.391-1.837-1.053-2.393-.664-.55-1.598-.826-2.669-.826-1.326 0-2.346.423-3.162 1.091a1.277 1.277 0 0 0-.458.962c0 .68.577 1.248 1.257 1.248.307 0 .578-.126.783-.279.475-.36.968-.528 1.529-.528.391 0 .663.088.833.219a.69.69 0 0 1 .255.564v.03c0 .271-.102.47-.34.631-.255.174-.663.305-1.275.381-.289.036-.527.158-.697.366-.17.209-.221.48-.187.773l.153.977c.068.486.459.91 1.02.91zm-8.43 4.383a1.208 1.208 0 0 1-1.207-1.205V3.62a1.21 1.21 0 0 1 1.207-1.207h16.794c.663 0 1.19.54 1.19 1.207v10.854c0 .666-.527 1.205-1.19 1.205h-5.1c-.577 0-1.139.213-1.58.598l-3.128 2.749a.593.593 0 0 1-.986-.454v-.481c0-.073 0-.146-.016-.22a2.585 2.585 0 0 0-.255-.887l-.018-.037a2.407 2.407 0 0 0-2.107-1.268zM0 3.618v10.855a3.611 3.611 0 0 0 3.603 3.617h3.604v.481c0 2.59 3.025 3.976 4.963 2.27l3.128-2.751h5.099A3.612 3.612 0 0 0 24 14.473V3.619A3.612 3.612 0 0 0 20.397 0H3.603A3.612 3.612 0 0 0 0 3.62z"/></g></g></svg>