<svg xmlns="http://www.w3.org/2000/svg" width="24" height="24" viewBox="0 0 24 24"><g><g clip-path="url(#clip-811a3a31-e30c-4fe2-9db1-78879675824d)"><path fill="#ff822f" d="M16.727 18.84c-.58 0-1.06.472-1.06 1.055 0 .582.48 1.055 1.06 1.055h2.12v2.11c0 .583.46 1.055 1.041 1.055a1.06 1.06 0 0 0 1.06-1.055v-2.11h2.118c.58 0 1.042-.473 1.042-1.055 0-.583-.462-1.055-1.042-1.055h-2.118v-2.11a1.06 1.06 0 0 0-1.06-1.055c-.58 0-1.042.473-1.042 1.055v2.11zm3.759-12.85l-1.64 1.64-3.571-3.568 1.64-1.638 1.709 1.715.154.138zm-6.92-.214l3.572 3.567L7.93 18.54l-3.571-3.567zm-7.79 14.031l-.769.156-2.58.523.513-2.58.153-.769zM18.624.71a2.41 2.41 0 0 0-3.417 0l-13.6 13.588a2.445 2.445 0 0 0-.65 1.233l-.904 4.473a2.418 2.418 0 0 0 .649 2.195c.58.574 1.4.824 2.204.661l4.475-.905a2.454 2.454 0 0 0 1.23-.661l13.584-13.59a2.406 2.406 0 0 0 0-3.427z"/></g></g></svg>