<?xml version="1.0" encoding="UTF-8"?>
<svg id="SVGDoc" width="18" height="17" xmlns="http://www.w3.org/2000/svg" version="1.1" xmlns:xlink="http://www.w3.org/1999/xlink" xmlns:avocode="https://avocode.com/" viewBox="0 0 18 17"><defs></defs><desc>Generated with Avocode.</desc><g><g clip-path="url(#clip-827d60ec-7502-4c73-99df-e087f8bd387b)"><title>Trazado 1511</title><path d="M9.70313,3.17245c-0.51172,0.81314 -0.63867,1.76678 -0.63867,2.22c0,0.29745 -0.12695,0.57706 -0.38086,0.74426c-0.25781,0.16599 -0.63867,0.20044 -0.89453,0.08942c-0.12695,-0.07278 -0.38281,-0.14557 -0.64062,-0.22601c-0.50977,-0.20554 -1.27539,-0.45187 -1.91211,-0.82211c-0.76953,-0.37537 -1.5332,-0.88477 -2.42578,-1.64175c0,0.33832 0.12891,0.64722 0.25391,0.93445c0.25586,0.66895 0.89453,1.33157 1.91602,1.94818c0.25586,0.16849 0.38281,0.47745 0.38281,0.80429c0,0.32806 -0.12695,0.62296 -0.51172,0.76978v0v0v0.00128v0v0.00125v0v0.00259v0v0.00763c0,0.00507 0,0.01276 0,0.0217c0,0.01785 -0.12891,0.03955 -0.12891,0.06638c-0.12695,0.05237 -0.37891,0.11874 -0.63867,0.18384c-0.25391,0.06894 -0.50781,0.13788 -0.89062,0.1864c0.25195,0.68298 0.63672,1.10812 1.15039,1.42981c0.25195,0.18896 0.50781,0.32813 0.76172,0.46857c0.13086,0.03442 0.13086,0.06891 0.25781,0.10468c0.12695,0.07785 0.25586,0.18381 0.50977,0.30896c0.12695,0.09698 0.38477,0.397 0.38477,0.90637c0,0.32553 -0.12891,0.57959 -0.12891,0.7149c-0.12891,0.15961 -0.25586,0.30258 -0.50977,0.42767c-0.25586,0.25278 -0.63867,0.49539 -1.15234,0.69449c-0.50781,0.22849 -1.14648,0.40851 -1.91211,0.47363c0.125,0.0332 0.125,0.06384 0.25586,0.09445c0.63477,0.28345 1.5332,0.39963 2.67969,0.29492c2.29883,-0.2081 5.10742,-1.2511 7.02344,-2.88519c1.40234,-1.64941 2.04102,-3.28223 2.29492,-4.49121c0.12695,-0.61148 0.12695,-1.117 0.12695,-1.46167c0,-0.17236 0,-0.30383 0,-0.38812c0,-0.04211 0,-0.07153 0,-0.08942v-0.01651c0,-0.21964 0,-0.44174 0.13086,-0.62305l-0.13086,0.62555v0v0.00131v0l0.13086,-0.62686v0l1.65625,0.76218c0,0.02045 0,-0.01913 0,0c0,0 0,0.23746 0,0.38681c0,0.44174 0,1.05957 -0.25,1.79617c-0.25977,1.4758 -1.02344,3.42014 -2.68359,5.3504c0,0.02933 0,0.05615 -0.12891,0.08041c-2.16992,1.93921 -5.23437,3.12903 -7.91406,3.36902c-1.40234,0.12003 -2.68164,0.01019 -3.70508,-0.43533c-1.01953,-0.46341 -1.91211,-1.31494 -2.04102,-2.5954c0,-0.28082 0,-0.56299 0.25391,-0.75958c0.25977,-0.19656 0.51367,-0.28467 0.76758,-0.23746c1.14844,0.19406 2.17188,-0.00381 2.80859,-0.27701c0,-0.02689 0.12891,-0.08295 0.12891,-0.08295v0c0,0 -0.38281,-0.2554 -0.63867,-0.41623c-1.01953,-0.66129 -2.04297,-1.77829 -2.04297,-3.73032c0,-0.4953 0.50977,-0.89871 1.02344,-0.89871c0,0 0.125,0 0.125,-0.00253c-0.50781,-0.46347 -0.76562,-0.97791 -1.02148,-1.54605c-0.50977,-1.15405 -0.50977,-2.41794 0,-3.72647c0.12891,-0.28082 0.38281,-0.48633 0.63672,-0.54767c0.25977,-0.05997 0.63867,0.03189 0.89844,0.24509c1.27734,1.29196 2.29688,1.98264 3.06055,2.42175c0.50977,0.25278 0.89258,0.41876 1.40625,0.57327c0.125,-0.61282 0.38281,-1.29962 0.76563,-1.93793c0.76563,-1.17703 2.04297,-2.21884 3.95703,-2.21884c1.27734,0 2.04102,0.60513 2.55273,1.02008c0.12695,0.04974 0.12695,0.09314 0.25391,0.1315c0,0.09695 0.13086,0.15955 0.25781,0.20422c0.38086,-0.19406 0.76563,-0.32938 1.01953,-0.39197c0.38281,-0.06638 0.89648,-0.08679 1.2793,0.24515c0.50781,0.34854 0.50781,0.84903 0.50781,1.14642c0,0.31021 -0.125,0.62167 -0.25586,0.88092c-0.125,0.52975 -0.50977,1.09277 -0.76367,1.49875c-0.12891,0.17746 -0.12891,0.33447 -0.25781,0.45447c0,0.19659 0,-0.01794 0,0l-1.65625,-0.76218v0v-0.00122v0v-0.00769v0v-0.03192c0,-0.02939 0.12695,-0.07404 0.12695,-0.12897c0.125,-0.11234 0.125,-0.27066 0.25586,-0.45578c0.125,-0.26169 0.38281,-0.55658 0.50977,-0.8349c-0.12695,0.02554 -0.12695,0.05359 -0.25586,0.08432c0,0.0051 0,0.01151 0,0.01657c-0.50977,0.24509 -1.02148,0.10083 -1.40625,-0.0957c-0.25,-0.13538 -0.50781,-0.34476 -0.63672,-0.49411c0,-0.02808 -0.12695,-0.0549 -0.12695,-0.07785c-0.38281,-0.35107 -0.76562,-0.60254 -1.4043,-0.60254c-1.14844,0 -1.91406,0.60632 -2.42578,1.37494z" fill="#ffffff" fill-opacity="1"></path></g></g></svg>