<?xml version="1.0" encoding="UTF-8"?>
<svg xmlns="http://www.w3.org/2000/svg" xmlns:xlink="http://www.w3.org/1999/xlink" width="22px" height="24px" viewBox="0 0 22 24" version="1.1">
<g id="surface1">
<path style=" stroke:none;fill-rule:nonzero;fill:rgb(90.196078%,56.862745%,21.960784%);fill-opacity:1;" d="M 10.230469 0.0234375 C 10.253906 0.0625 10.160156 0.105469 10.054688 0.105469 C 9.925781 0.105469 9.496094 0.179688 9.363281 0.230469 C 9.300781 0.25 9.226562 0.265625 9.191406 0.265625 C 9.128906 0.265625 9.046875 0.289062 8.714844 0.414062 C 8.605469 0.449219 8.488281 0.492188 8.445312 0.507812 C 8.324219 0.542969 8.210938 0.59375 8.042969 0.675781 C 7.953125 0.71875 7.851562 0.769531 7.808594 0.789062 C 7.585938 0.894531 7.457031 0.96875 7.34375 1.039062 C 7.28125 1.082031 7.191406 1.136719 7.148438 1.15625 C 7.109375 1.175781 7.019531 1.238281 6.945312 1.289062 C 6.875 1.34375 6.808594 1.386719 6.804688 1.386719 C 6.796875 1.386719 6.730469 1.441406 6.652344 1.5 C 6.578125 1.566406 6.503906 1.625 6.484375 1.628906 C 6.417969 1.652344 5.835938 2.195312 5.601562 2.453125 C 5.222656 2.875 4.808594 3.425781 4.609375 3.78125 C 4.59375 3.804688 4.539062 3.898438 4.484375 3.988281 C 4.332031 4.242188 4.136719 4.644531 3.980469 5.039062 C 3.953125 5.105469 3.921875 5.1875 3.90625 5.214844 C 3.863281 5.316406 3.738281 5.71875 3.71875 5.820312 C 3.707031 5.878906 3.683594 5.9375 3.667969 5.953125 C 3.65625 5.96875 3.640625 6.011719 3.640625 6.042969 C 3.640625 6.074219 3.628906 6.160156 3.609375 6.230469 C 3.589844 6.300781 3.558594 6.425781 3.535156 6.507812 C 3.511719 6.59375 3.496094 6.703125 3.496094 6.757812 C 3.496094 6.8125 3.484375 6.878906 3.472656 6.90625 C 3.457031 6.9375 3.433594 7.078125 3.421875 7.230469 C 3.394531 7.535156 3.371094 7.585938 3.222656 7.625 C 3.171875 7.644531 3.125 7.667969 3.117188 7.679688 C 3.109375 7.695312 3.085938 7.707031 3.066406 7.707031 C 3 7.707031 2.570312 8.046875 2.394531 8.238281 C 2.273438 8.371094 2.121094 8.574219 2.09375 8.640625 C 2.085938 8.660156 2.054688 8.714844 2.027344 8.761719 C 1.898438 8.980469 1.765625 9.332031 1.734375 9.535156 C 1.722656 9.605469 1.703125 9.710938 1.6875 9.761719 C 1.65625 9.882812 1.65625 10.496094 1.6875 10.613281 C 1.703125 10.664062 1.726562 10.765625 1.734375 10.839844 C 1.789062 11.210938 2.054688 11.742188 2.363281 12.097656 C 2.566406 12.328125 2.875 12.574219 3.105469 12.683594 C 3.367188 12.8125 3.402344 12.828125 3.449219 12.828125 C 3.476562 12.828125 3.527344 12.84375 3.5625 12.863281 C 3.65625 12.917969 4.203125 12.960938 4.757812 12.960938 C 5.222656 12.960938 5.328125 12.976562 5.328125 13.046875 C 5.328125 13.0625 5.359375 13.152344 5.398438 13.238281 C 5.4375 13.328125 5.476562 13.417969 5.484375 13.441406 C 5.492188 13.460938 5.523438 13.523438 5.550781 13.574219 C 5.582031 13.625 5.628906 13.714844 5.65625 13.773438 C 5.707031 13.871094 5.804688 14.039062 5.972656 14.304688 C 6.007812 14.359375 6.039062 14.421875 6.039062 14.441406 C 6.039062 14.46875 5.691406 14.746094 5.65625 14.746094 C 5.648438 14.746094 5.574219 14.800781 5.492188 14.871094 C 5.410156 14.941406 5.332031 15.007812 5.316406 15.019531 C 5.238281 15.082031 4.96875 15.324219 4.949219 15.347656 C 4.9375 15.363281 4.875 15.417969 4.816406 15.472656 C 4.386719 15.847656 3.617188 16.792969 3.277344 17.375 C 3.257812 17.40625 3.183594 17.519531 3.121094 17.625 C 3.058594 17.730469 2.996094 17.835938 2.988281 17.863281 C 2.980469 17.886719 2.945312 17.949219 2.914062 18 C 2.882812 18.050781 2.828125 18.152344 2.796875 18.226562 C 2.761719 18.296875 2.726562 18.378906 2.714844 18.398438 C 2.699219 18.421875 2.6875 18.457031 2.679688 18.480469 C 2.667969 18.5 2.636719 18.566406 2.601562 18.625 C 2.570312 18.683594 2.542969 18.753906 2.542969 18.777344 C 2.542969 18.800781 2.523438 18.835938 2.503906 18.851562 C 2.484375 18.871094 2.46875 18.902344 2.46875 18.921875 C 2.46875 18.945312 2.4375 19.039062 2.394531 19.128906 C 2.355469 19.222656 2.320312 19.316406 2.320312 19.335938 C 2.320312 19.355469 2.304688 19.398438 2.285156 19.425781 C 2.265625 19.453125 2.25 19.5 2.25 19.53125 C 2.25 19.5625 2.230469 19.609375 2.210938 19.636719 C 2.191406 19.667969 2.175781 19.710938 2.175781 19.738281 C 2.175781 19.761719 2.160156 19.824219 2.140625 19.871094 C 2.125 19.921875 2.089844 20.03125 2.066406 20.121094 C 2.042969 20.207031 2.007812 20.320312 1.988281 20.367188 C 1.96875 20.414062 1.957031 20.492188 1.957031 20.535156 C 1.957031 20.574219 1.941406 20.644531 1.929688 20.683594 C 1.910156 20.726562 1.890625 20.8125 1.882812 20.878906 C 1.871094 20.945312 1.851562 21.054688 1.839844 21.121094 C 1.78125 21.382812 1.753906 21.574219 1.734375 21.851562 C 1.722656 22.011719 1.703125 22.199219 1.6875 22.265625 C 1.675781 22.332031 1.664062 22.585938 1.664062 22.832031 C 1.664062 23.289062 1.664062 23.28125 1.769531 23.546875 C 1.808594 23.644531 2.003906 23.84375 2.113281 23.902344 C 2.167969 23.929688 2.230469 23.964844 2.253906 23.976562 C 2.277344 23.988281 6.199219 24 10.964844 24 L 19.632812 24 L 19.753906 23.933594 C 19.820312 23.898438 19.914062 23.835938 19.957031 23.796875 C 20.0625 23.710938 20.203125 23.484375 20.226562 23.359375 C 20.269531 23.15625 20.226562 21.769531 20.179688 21.679688 C 20.167969 21.660156 20.148438 21.566406 20.140625 21.46875 C 20.117188 21.242188 20.054688 20.914062 20.023438 20.820312 C 20.007812 20.777344 19.996094 20.703125 19.996094 20.660156 C 19.992188 20.609375 19.976562 20.542969 19.957031 20.507812 C 19.9375 20.46875 19.925781 20.40625 19.921875 20.367188 C 19.921875 20.328125 19.90625 20.257812 19.886719 20.207031 C 19.832031 20.058594 19.796875 19.9375 19.78125 19.851562 C 19.777344 19.808594 19.753906 19.75 19.738281 19.71875 C 19.71875 19.691406 19.703125 19.648438 19.703125 19.625 C 19.703125 19.585938 19.671875 19.5 19.519531 19.105469 C 19.5 19.0625 19.457031 18.957031 19.421875 18.875 C 19.390625 18.792969 19.347656 18.695312 19.335938 18.660156 C 19.324219 18.625 19.300781 18.574219 19.28125 18.546875 C 19.246094 18.480469 19.230469 18.445312 19.152344 18.28125 C 19.117188 18.207031 19.070312 18.109375 19.042969 18.066406 C 19.015625 18.019531 18.984375 17.960938 18.96875 17.933594 C 18.941406 17.878906 18.925781 17.84375 18.816406 17.660156 C 18.777344 17.59375 18.75 17.539062 18.75 17.53125 C 18.75 17.515625 18.613281 17.308594 18.554688 17.234375 C 18.542969 17.214844 18.527344 17.195312 18.527344 17.1875 C 18.527344 17.175781 18.476562 17.097656 18.414062 17.007812 C 18.347656 16.921875 18.273438 16.816406 18.246094 16.777344 C 18.078125 16.535156 17.40625 15.765625 17.0625 15.425781 C 16.953125 15.316406 16.71875 15.109375 16.570312 14.996094 C 16.527344 14.960938 16.449219 14.894531 16.390625 14.84375 C 16.335938 14.796875 16.273438 14.746094 16.253906 14.734375 C 16.191406 14.703125 16.125 14.65625 16.003906 14.5625 C 15.890625 14.472656 15.863281 14.410156 15.914062 14.355469 C 15.929688 14.339844 15.953125 14.300781 15.972656 14.273438 C 15.988281 14.242188 16.050781 14.132812 16.117188 14.03125 C 16.253906 13.8125 16.339844 13.644531 16.464844 13.359375 C 16.511719 13.25 16.570312 13.117188 16.59375 13.066406 L 16.640625 12.972656 L 17.308594 12.957031 C 17.984375 12.9375 18.285156 12.910156 18.378906 12.855469 C 18.402344 12.839844 18.449219 12.828125 18.476562 12.828125 C 18.523438 12.828125 18.863281 12.671875 18.921875 12.625 C 18.941406 12.609375 18.988281 12.582031 19.027344 12.558594 C 19.160156 12.488281 19.449219 12.230469 19.597656 12.046875 C 19.742188 11.871094 19.957031 11.539062 19.988281 11.445312 C 19.996094 11.421875 20.03125 11.324219 20.070312 11.230469 C 20.109375 11.140625 20.140625 11.046875 20.140625 11.023438 C 20.140625 11.003906 20.15625 10.957031 20.171875 10.925781 C 20.242188 10.785156 20.269531 10.15625 20.21875 9.734375 C 20.195312 9.515625 20.175781 9.414062 20.105469 9.238281 C 20.089844 9.195312 20.050781 9.09375 20.019531 9.011719 C 19.992188 8.933594 19.9375 8.828125 19.90625 8.78125 C 19.875 8.734375 19.847656 8.6875 19.847656 8.679688 C 19.847656 8.648438 19.632812 8.355469 19.515625 8.230469 C 19.402344 8.105469 19.132812 7.867188 19.101562 7.867188 C 19.097656 7.867188 19.050781 7.835938 19.011719 7.800781 C 18.964844 7.769531 18.878906 7.714844 18.808594 7.683594 C 18.609375 7.585938 18.570312 7.5625 18.550781 7.519531 C 18.527344 7.464844 18.480469 7.171875 18.457031 6.921875 C 18.449219 6.800781 18.429688 6.664062 18.414062 6.613281 C 18.347656 6.390625 18.308594 6.21875 18.308594 6.15625 C 18.304688 6.121094 18.292969 6.0625 18.273438 6.027344 C 18.253906 5.988281 18.238281 5.929688 18.234375 5.890625 C 18.234375 5.851562 18.222656 5.8125 18.207031 5.792969 C 18.195312 5.777344 18.175781 5.726562 18.164062 5.675781 C 18.128906 5.535156 18.074219 5.367188 17.984375 5.148438 C 17.847656 4.796875 17.710938 4.492188 17.621094 4.332031 C 17.582031 4.257812 17.53125 4.164062 17.511719 4.121094 C 17.464844 4.019531 17.425781 3.949219 17.246094 3.667969 C 17.164062 3.539062 17.085938 3.414062 17.074219 3.390625 C 17.058594 3.363281 17.03125 3.324219 17.011719 3.300781 C 16.992188 3.28125 16.914062 3.179688 16.84375 3.078125 C 16.625 2.777344 16.117188 2.230469 15.785156 1.929688 C 15.613281 1.773438 15.453125 1.632812 15.425781 1.617188 C 15.398438 1.601562 15.269531 1.507812 15.136719 1.410156 C 15.007812 1.316406 14.882812 1.226562 14.863281 1.21875 C 14.84375 1.207031 14.792969 1.175781 14.753906 1.148438 C 14.632812 1.0625 14.273438 0.863281 14.117188 0.785156 C 14.078125 0.769531 13.972656 0.714844 13.882812 0.667969 C 13.796875 0.625 13.703125 0.585938 13.675781 0.585938 C 13.648438 0.585938 13.605469 0.566406 13.582031 0.546875 C 13.554688 0.523438 13.511719 0.507812 13.484375 0.507812 C 13.460938 0.507812 13.40625 0.492188 13.363281 0.472656 C 13.21875 0.40625 13.113281 0.367188 13.015625 0.347656 C 12.960938 0.339844 12.894531 0.316406 12.863281 0.296875 C 12.835938 0.28125 12.78125 0.265625 12.742188 0.265625 C 12.707031 0.265625 12.625 0.25 12.5625 0.230469 C 12.441406 0.1875 12.179688 0.136719 11.890625 0.105469 C 11.785156 0.09375 11.695312 0.0820312 11.691406 0.0820312 C 11.6875 0.078125 11.683594 0.0625 11.683594 0.0390625 C 11.683594 0.00390625 11.585938 0 10.949219 0 C 10.492188 0 10.21875 0.0117188 10.230469 0.0234375 Z M 11.476562 1.933594 C 11.742188 1.945312 11.929688 1.980469 12.246094 2.058594 C 12.308594 2.074219 12.394531 2.097656 12.441406 2.109375 C 12.703125 2.175781 13.019531 2.296875 13.292969 2.433594 C 13.375 2.472656 13.453125 2.507812 13.46875 2.507812 C 13.480469 2.507812 13.546875 2.542969 13.617188 2.585938 C 13.683594 2.632812 13.8125 2.707031 13.894531 2.757812 C 14.261719 2.972656 14.757812 3.390625 15.117188 3.777344 C 15.269531 3.941406 15.535156 4.265625 15.589844 4.347656 C 15.613281 4.382812 15.65625 4.441406 15.6875 4.480469 C 15.71875 4.515625 15.742188 4.554688 15.742188 4.566406 C 15.742188 4.574219 15.792969 4.65625 15.851562 4.742188 C 15.914062 4.828125 15.960938 4.910156 15.960938 4.917969 C 15.960938 4.929688 15.992188 4.984375 16.027344 5.046875 C 16.105469 5.179688 16.371094 5.742188 16.402344 5.839844 C 16.414062 5.878906 16.445312 5.972656 16.476562 6.054688 C 16.660156 6.574219 16.824219 7.304688 16.769531 7.367188 C 16.757812 7.378906 16.675781 7.386719 16.585938 7.382812 L 16.417969 7.375 L 16.328125 7.179688 C 16.273438 7.070312 16.1875 6.910156 16.132812 6.820312 C 16.078125 6.734375 16.035156 6.65625 16.035156 6.648438 C 16.035156 6.644531 15.933594 6.492188 15.8125 6.3125 C 15.550781 5.9375 15.09375 5.425781 14.789062 5.171875 C 14.578125 4.992188 14.292969 4.773438 14.226562 4.738281 C 14.207031 4.726562 14.160156 4.695312 14.117188 4.667969 C 13.996094 4.585938 13.632812 4.378906 13.480469 4.308594 C 13.136719 4.148438 13.042969 4.105469 13.015625 4.105469 C 12.996094 4.105469 12.945312 4.089844 12.902344 4.070312 C 12.859375 4.050781 12.761719 4.015625 12.6875 3.992188 C 12.613281 3.96875 12.492188 3.933594 12.414062 3.910156 C 12.339844 3.886719 12.246094 3.867188 12.203125 3.867188 C 12.160156 3.867188 12.097656 3.851562 12.058594 3.835938 C 11.964844 3.796875 11.238281 3.722656 10.9375 3.722656 C 10.652344 3.722656 9.964844 3.796875 9.867188 3.835938 C 9.828125 3.851562 9.761719 3.867188 9.714844 3.867188 C 9.671875 3.867188 9.605469 3.878906 9.566406 3.894531 C 9.527344 3.914062 9.453125 3.9375 9.398438 3.949219 C 9.226562 3.988281 9.082031 4.03125 9.011719 4.070312 C 8.972656 4.089844 8.925781 4.105469 8.898438 4.105469 C 8.878906 4.105469 8.835938 4.125 8.808594 4.148438 C 8.785156 4.167969 8.742188 4.1875 8.71875 4.1875 C 8.636719 4.1875 7.855469 4.609375 7.746094 4.710938 C 7.726562 4.730469 7.703125 4.746094 7.691406 4.746094 C 7.667969 4.746094 7.460938 4.902344 7.203125 5.113281 C 6.984375 5.292969 6.207031 6.113281 6.207031 6.164062 C 6.207031 6.175781 6.164062 6.246094 6.105469 6.324219 C 5.988281 6.488281 5.734375 6.894531 5.65625 7.054688 C 5.488281 7.394531 5.5 7.386719 5.296875 7.386719 L 5.125 7.386719 L 5.144531 7.285156 C 5.152344 7.230469 5.171875 7.113281 5.183594 7.027344 C 5.195312 6.9375 5.214844 6.828125 5.226562 6.785156 C 5.242188 6.742188 5.269531 6.632812 5.292969 6.546875 C 5.3125 6.457031 5.347656 6.347656 5.367188 6.296875 C 5.386719 6.25 5.402344 6.195312 5.402344 6.171875 C 5.402344 6.15625 5.417969 6.105469 5.4375 6.0625 C 5.457031 6.019531 5.488281 5.933594 5.515625 5.867188 C 5.554688 5.746094 5.628906 5.566406 5.671875 5.492188 C 5.679688 5.472656 5.71875 5.398438 5.75 5.328125 C 5.902344 4.996094 6.324219 4.324219 6.5 4.136719 C 6.535156 4.097656 6.597656 4.019531 6.640625 3.960938 C 6.726562 3.839844 7.183594 3.390625 7.386719 3.222656 C 7.792969 2.890625 8.207031 2.628906 8.714844 2.386719 C 8.757812 2.367188 8.828125 2.332031 8.878906 2.308594 C 8.925781 2.285156 8.984375 2.265625 9.003906 2.265625 C 9.023438 2.265625 9.078125 2.25 9.121094 2.230469 C 9.265625 2.164062 9.371094 2.128906 9.472656 2.105469 C 9.566406 2.089844 9.65625 2.066406 9.917969 1.996094 C 10.070312 1.957031 10.847656 1.894531 11.035156 1.910156 C 11.117188 1.914062 11.316406 1.925781 11.476562 1.933594 Z M 11.429688 5.621094 C 11.578125 5.636719 11.734375 5.660156 11.78125 5.675781 C 11.828125 5.691406 11.910156 5.707031 11.957031 5.707031 C 12.007812 5.707031 12.054688 5.71875 12.0625 5.730469 C 12.070312 5.742188 12.113281 5.761719 12.15625 5.773438 C 12.199219 5.78125 12.289062 5.808594 12.355469 5.832031 C 12.472656 5.871094 12.511719 5.886719 12.714844 5.988281 C 12.875 6.0625 13.019531 6.136719 13.089844 6.1875 C 13.132812 6.214844 13.183594 6.25 13.210938 6.265625 C 13.292969 6.3125 13.34375 6.347656 13.640625 6.589844 C 13.902344 6.804688 14.160156 7.074219 14.386719 7.371094 C 14.484375 7.5 14.714844 7.855469 14.714844 7.878906 C 14.714844 7.886719 14.746094 7.9375 14.777344 7.992188 C 14.847656 8.101562 15.082031 8.625 15.082031 8.667969 C 15.082031 8.691406 15.113281 8.777344 15.191406 8.972656 C 15.210938 9.015625 15.230469 9.101562 15.234375 9.160156 C 15.242188 9.21875 15.257812 9.300781 15.273438 9.347656 C 15.335938 9.535156 15.359375 9.777344 15.367188 10.292969 C 15.378906 10.808594 15.367188 10.96875 15.300781 11.332031 C 15.273438 11.484375 15.230469 11.667969 15.199219 11.773438 C 15.1875 11.816406 15.164062 11.894531 15.15625 11.945312 C 15.117188 12.128906 14.910156 12.636719 14.792969 12.839844 C 14.695312 13.003906 14.667969 13.050781 14.648438 13.09375 C 14.640625 13.113281 14.621094 13.144531 14.613281 13.160156 C 14.601562 13.171875 14.535156 13.269531 14.464844 13.375 C 14.308594 13.605469 13.894531 14.058594 13.671875 14.238281 C 13.582031 14.3125 13.496094 14.382812 13.480469 14.394531 C 13.46875 14.40625 13.441406 14.425781 13.421875 14.433594 C 13.402344 14.445312 13.351562 14.476562 13.308594 14.503906 C 13.105469 14.648438 12.550781 14.925781 12.355469 14.988281 C 12.316406 14.996094 12.25 15.019531 12.210938 15.039062 C 12.171875 15.050781 12.046875 15.082031 11.941406 15.105469 C 11.832031 15.128906 11.707031 15.164062 11.660156 15.179688 C 11.527344 15.21875 10.601562 15.238281 10.402344 15.203125 C 10.046875 15.136719 9.839844 15.089844 9.691406 15.035156 C 9.652344 15.019531 9.585938 15 9.546875 14.992188 C 9.507812 14.988281 9.449219 14.960938 9.421875 14.945312 C 9.394531 14.921875 9.363281 14.90625 9.34375 14.90625 C 9.273438 14.90625 8.859375 14.683594 8.644531 14.527344 C 8.566406 14.472656 8.496094 14.425781 8.492188 14.425781 C 8.484375 14.425781 8.390625 14.351562 8.28125 14.265625 C 8.0625 14.089844 7.527344 13.507812 7.527344 13.449219 C 7.527344 13.433594 7.515625 13.40625 7.496094 13.394531 C 7.476562 13.382812 7.417969 13.308594 7.371094 13.226562 C 7.320312 13.148438 7.265625 13.070312 7.253906 13.0625 C 7.234375 13.046875 7.230469 13.03125 7.246094 13 C 7.269531 12.960938 7.464844 12.957031 9.082031 12.960938 C 10.929688 12.960938 11.203125 12.949219 11.355469 12.859375 C 11.488281 12.777344 11.664062 12.574219 11.726562 12.425781 C 11.785156 12.296875 11.792969 12.246094 11.792969 12.027344 C 11.792969 11.808594 11.785156 11.753906 11.726562 11.625 C 11.628906 11.40625 11.414062 11.199219 11.21875 11.136719 C 11.167969 11.121094 10.304688 11.105469 8.859375 11.097656 L 6.585938 11.078125 L 6.574219 10.933594 C 6.5625 10.851562 6.546875 10.710938 6.539062 10.617188 C 6.519531 10.449219 6.554688 9.847656 6.601562 9.585938 C 6.65625 9.28125 6.710938 9.054688 6.761719 8.898438 C 6.902344 8.488281 7.027344 8.183594 7.160156 7.960938 C 7.195312 7.902344 7.242188 7.8125 7.265625 7.761719 C 7.292969 7.710938 7.347656 7.625 7.386719 7.574219 C 7.425781 7.523438 7.496094 7.425781 7.546875 7.359375 C 7.90625 6.855469 8.488281 6.351562 9.019531 6.078125 C 9.300781 5.933594 9.644531 5.785156 9.703125 5.785156 C 9.730469 5.785156 9.789062 5.769531 9.832031 5.75 C 9.9375 5.699219 10.199219 5.652344 10.507812 5.625 C 10.644531 5.617188 10.765625 5.597656 10.773438 5.585938 C 10.792969 5.566406 10.984375 5.578125 11.429688 5.621094 Z M 4.882812 9.324219 C 4.890625 9.347656 4.882812 9.515625 4.863281 9.691406 C 4.816406 10.15625 4.808594 10.597656 4.835938 10.828125 C 4.875 11.113281 4.890625 11.105469 4.378906 11.085938 C 4.054688 11.070312 3.941406 11.058594 3.894531 11.03125 C 3.863281 11.003906 3.824219 10.988281 3.804688 10.988281 C 3.765625 10.988281 3.523438 10.734375 3.496094 10.660156 C 3.480469 10.625 3.460938 10.582031 3.449219 10.558594 C 3.34375 10.367188 3.355469 9.929688 3.464844 9.785156 C 3.480469 9.761719 3.496094 9.722656 3.496094 9.703125 C 3.496094 9.652344 3.707031 9.433594 3.820312 9.371094 C 3.933594 9.308594 4.070312 9.289062 4.492188 9.28125 C 4.824219 9.28125 4.867188 9.285156 4.882812 9.324219 Z M 18.0625 9.355469 C 18.183594 9.414062 18.457031 9.691406 18.457031 9.753906 C 18.457031 9.769531 18.476562 9.820312 18.496094 9.855469 C 18.527344 9.90625 18.539062 9.988281 18.539062 10.167969 C 18.542969 10.464844 18.488281 10.609375 18.296875 10.816406 C 18.089844 11.046875 18.003906 11.070312 17.507812 11.078125 L 17.082031 11.078125 L 17.078125 10.347656 C 17.070312 9.828125 17.058594 9.570312 17.039062 9.472656 C 17.007812 9.347656 17.007812 9.324219 17.039062 9.304688 C 17.058594 9.289062 17.246094 9.28125 17.515625 9.289062 C 17.894531 9.296875 17.96875 9.308594 18.0625 9.355469 Z M 7.4375 15.894531 C 7.472656 15.921875 7.507812 15.945312 7.515625 15.945312 C 7.527344 15.945312 7.574219 15.980469 7.625 16.019531 C 7.671875 16.0625 7.730469 16.105469 7.75 16.117188 C 7.769531 16.125 7.851562 16.175781 7.933594 16.226562 C 8.070312 16.316406 8.332031 16.457031 8.53125 16.554688 C 8.578125 16.574219 8.644531 16.609375 8.683594 16.632812 C 8.71875 16.652344 8.769531 16.667969 8.792969 16.667969 C 8.816406 16.667969 8.859375 16.683594 8.886719 16.703125 C 8.914062 16.722656 8.960938 16.746094 8.996094 16.753906 C 9.03125 16.761719 9.089844 16.78125 9.128906 16.792969 C 9.3125 16.863281 9.703125 16.96875 9.9375 17.011719 C 10.609375 17.136719 11.867188 17.101562 12.285156 16.945312 C 12.339844 16.921875 12.40625 16.90625 12.4375 16.90625 C 12.464844 16.90625 12.53125 16.890625 12.582031 16.871094 C 12.632812 16.851562 12.742188 16.8125 12.820312 16.785156 C 12.902344 16.761719 12.996094 16.726562 13.035156 16.703125 C 13.066406 16.683594 13.117188 16.667969 13.140625 16.667969 C 13.191406 16.667969 13.761719 16.375 13.921875 16.265625 C 13.960938 16.238281 14.042969 16.1875 14.105469 16.15625 C 14.164062 16.121094 14.277344 16.046875 14.359375 15.980469 C 14.527344 15.84375 14.59375 15.820312 14.675781 15.871094 C 14.707031 15.890625 14.796875 15.941406 14.871094 15.988281 C 14.949219 16.03125 15.007812 16.074219 15.007812 16.085938 C 15.007812 16.097656 15.019531 16.105469 15.03125 16.105469 C 15.082031 16.105469 15.679688 16.582031 15.890625 16.785156 C 16.027344 16.921875 16.6875 17.640625 16.769531 17.746094 C 16.839844 17.835938 17.253906 18.441406 17.300781 18.519531 C 17.316406 18.550781 17.398438 18.699219 17.484375 18.851562 C 17.566406 19.003906 17.648438 19.15625 17.664062 19.1875 C 17.683594 19.214844 17.703125 19.257812 17.710938 19.28125 C 17.71875 19.300781 17.777344 19.425781 17.835938 19.554688 C 17.894531 19.683594 17.941406 19.804688 17.941406 19.828125 C 17.941406 19.84375 17.957031 19.894531 17.976562 19.9375 C 18.042969 20.089844 18.085938 20.203125 18.125 20.347656 C 18.148438 20.425781 18.183594 20.527344 18.199219 20.574219 C 18.21875 20.617188 18.238281 20.6875 18.242188 20.734375 C 18.25 20.777344 18.265625 20.847656 18.28125 20.894531 C 18.339844 21.070312 18.382812 21.265625 18.382812 21.332031 C 18.382812 21.375 18.398438 21.449219 18.417969 21.5 C 18.4375 21.554688 18.457031 21.660156 18.457031 21.730469 C 18.457031 21.804688 18.46875 21.925781 18.484375 22.003906 C 18.503906 22.113281 18.503906 22.144531 18.476562 22.164062 C 18.425781 22.199219 3.527344 22.195312 3.46875 22.160156 C 3.417969 22.128906 3.402344 21.953125 3.445312 21.867188 C 3.457031 21.839844 3.480469 21.726562 3.492188 21.609375 C 3.507812 21.492188 3.53125 21.347656 3.542969 21.28125 C 3.589844 21.078125 3.644531 20.871094 3.671875 20.785156 C 3.683594 20.742188 3.707031 20.664062 3.714844 20.613281 C 3.738281 20.496094 3.824219 20.230469 3.902344 20.03125 C 3.921875 19.988281 3.949219 19.90625 3.96875 19.859375 C 4.039062 19.679688 4.316406 19.070312 4.421875 18.878906 C 4.824219 18.128906 5.355469 17.433594 5.992188 16.824219 C 6.164062 16.660156 6.636719 16.265625 6.664062 16.265625 C 6.671875 16.265625 6.71875 16.230469 6.769531 16.1875 C 6.824219 16.140625 6.871094 16.105469 6.882812 16.105469 C 6.886719 16.105469 6.933594 16.078125 6.972656 16.042969 C 7.082031 15.957031 7.285156 15.839844 7.335938 15.839844 C 7.359375 15.839844 7.402344 15.863281 7.4375 15.894531 Z M 7.4375 15.894531 "/>
</g>
</svg>
