<?xml version="1.0" encoding="utf-8"?>
<!-- Generator: Adobe Illustrator 24.1.3, SVG Export Plug-In . SVG Version: 6.00 Build 0)  -->
<svg version="1.1" id="Layer_1" xmlns="http://www.w3.org/2000/svg" xmlns:xlink="http://www.w3.org/1999/xlink" x="0px" y="0px"
	 viewBox="0 0 1817.17 1817.3" style="enable-background:new 0 0 1817.17 1817.3;" xml:space="preserve">
<style type="text/css">
	.st0{fill:#FFFFFF;}
	.st1{fill:url(#SVGID_1_);}
	.st2{fill:url(#SVGID_2_);}
	.st3{fill:url(#SVGID_3_);}
	.st4{fill:url(#SVGID_4_);}
	.st5{fill:url(#SVGID_5_);}
	.st6{fill:url(#SVGID_6_);}
	.st7{fill:url(#SVGID_7_);}
	.st8{fill:url(#SVGID_8_);}
	.st9{fill:url(#SVGID_9_);}
	.st10{fill:url(#SVGID_10_);}
	.st11{fill:url(#SVGID_11_);}
	.st12{fill:url(#SVGID_12_);}
</style>
<g>
	<g>
		<g>
			<radialGradient id="SVGID_1_" cx="908.5861" cy="908.6512" r="908.6187" gradientUnits="userSpaceOnUse">
				<stop  offset="0" style="stop-color:#FFB12D"/>
				<stop  offset="1" style="stop-color:#FF7F2D"/>
			</radialGradient>
			<path class="st1" d="M1814.51,838.78c-0.51-7.75-1.27-15.37-2.03-22.99c-0.88-9.15-2.02-18.29-3.18-27.31
				c-0.76-6.1-1.65-12.2-2.53-18.17c-2.29-14.99-4.96-29.98-8.01-44.72c-2.92-14.74-6.35-29.34-10.16-43.95
				c-1.77-6.61-3.42-13.21-5.33-19.69c-1.27-4.57-2.54-9.15-4.06-13.72c-5.21-17.53-10.93-34.93-17.16-51.96
				c-4.95-13.72-10.42-27.06-16-40.39c-0.12-0.25-0.26-0.64-0.38-0.89c-2.92-6.73-5.84-13.46-8.76-20.2
				c-90.96-201.34-253.18-363.56-454.52-454.52c-6.74-2.92-13.47-5.97-20.2-8.77c-0.14,0-0.26-0.13-0.38-0.13
				c-13.34-5.59-26.81-10.92-40.39-15.88c-0.51-0.25-1.02-0.38-1.53-0.63c-13.6-4.96-27.32-9.65-41.16-13.97
				c-0.63-0.25-1.14-0.38-1.77-0.51c-7.24-2.29-14.49-4.32-21.72-6.48c-15-4.19-30.11-8-45.35-11.56
				c-6.86-1.4-13.72-2.92-20.58-4.32c-7.37-1.52-14.74-2.92-22.23-4.19c-7.37-1.4-14.86-2.54-22.35-3.68
				C1030.35,8,1016,6.22,1001.38,4.7c-7.62-0.76-15.25-1.52-22.99-2.03C955.4,0.89,932.03,0,908.53,0
				c-23.51,0-46.88,0.89-69.87,2.67c-7.75,0.51-15.37,1.27-23,2.03c-14.6,1.52-28.97,3.3-43.32,5.46
				c-7.49,1.14-14.99,2.29-22.35,3.68c-7.49,1.27-14.86,2.67-22.23,4.19c-6.86,1.4-13.72,2.92-20.58,4.32
				c-15.25,3.56-30.36,7.37-45.35,11.56c-7.23,2.16-14.48,4.19-21.72,6.48c-0.63,0.13-1.14,0.25-1.77,0.51
				c-10.54,3.3-21.09,6.73-31.37,10.42c-10.3,3.68-20.7,7.49-31,11.56c-0.25,0-0.37,0.13-0.51,0.13
				c-6.86,2.79-13.72,5.59-20.58,8.51c-6.72,2.8-13.46,5.84-20.2,8.77c-60.46,27.31-117.24,60.97-169.71,100.23
				c-5.84,4.32-11.56,8.77-17.28,13.34c-34.42,26.93-66.82,56.4-96.92,88.03c-8.51,8.89-16.9,18.04-25.02,27.44
				c-6.35,7.11-12.58,14.48-18.81,21.85c-9.02,11.05-17.79,22.36-26.42,33.79c-4.32,5.84-8.63,11.81-12.83,17.66
				c-8.63,11.81-16.77,24.01-24.51,36.33c-8.01,12.19-15.63,24.77-22.74,37.47c-3.82,6.48-7.37,12.96-11.05,19.56
				C95.53,501.52,82.83,527.94,71.39,555c-5.84,13.85-11.44,27.95-16.64,42.3c-5.09,13.59-9.66,27.31-13.86,41.16
				c-2.28,7.11-4.44,14.23-6.48,21.47c-2.03,7.24-3.93,14.36-5.84,21.72c-3.81,14.61-7.24,29.22-10.16,43.95
				c-2.93,14.74-5.59,29.6-8,44.72c-0.89,5.97-1.79,12.07-2.54,18.17c-1.14,9.02-2.28,18.16-3.18,27.31
				c-0.76,7.62-1.53,15.24-2.03,22.99C0.89,861.78,0,885.15,0,908.65c0,23.5,0.89,46.87,2.67,69.87c0.51,7.75,1.28,15.37,2.03,22.99
				c0.89,9.15,2.03,18.29,3.18,27.31c0.76,6.1,1.65,12.19,2.54,18.17c2.41,15.12,5.07,29.98,8,44.71
				c2.92,14.74,6.35,29.34,10.16,43.95c1.91,7.37,3.81,14.48,5.84,21.72c2.03,7.24,4.19,14.35,6.48,21.47
				c4.19,13.85,8.77,27.56,13.86,41.16c5.2,14.35,10.79,28.45,16.64,42.3c11.44,27.06,24.14,53.48,37.99,79.01
				c3.68,6.6,7.23,13.08,11.05,19.56c7.11,12.7,14.73,25.28,22.74,37.47c7.74,12.32,15.88,24.52,24.51,36.33
				c4.19,5.84,8.51,11.81,12.83,17.66c8.63,11.43,17.4,22.74,26.42,33.79c6.23,7.37,12.45,14.74,18.81,21.85
				c8.13,9.4,16.51,18.55,25.02,27.44c30.11,31.63,62.5,61.1,96.92,88.03c5.72,4.57,11.44,9.02,17.28,13.34
				c52.46,39.25,109.24,72.92,169.71,100.23c6.74,2.92,13.47,5.97,20.2,8.76c6.86,2.92,13.72,5.72,20.58,8.51
				c0.14,0,0.26,0.13,0.51,0.13c10.3,4.06,20.7,7.88,31,11.56c10.28,3.68,20.83,7.11,31.37,10.42c0.63,0.25,1.14,0.38,1.77,0.51
				c7.24,2.29,14.49,4.32,21.72,6.48c15,4.19,30.11,8,45.35,11.56c6.86,1.4,13.72,2.92,20.58,4.32c7.37,1.52,14.74,2.92,22.23,4.19
				c7.37,1.4,14.86,2.54,22.35,3.68c14.35,2.16,28.72,3.94,43.32,5.46c7.63,0.76,15.25,1.53,23,2.03
				c22.99,1.78,46.36,2.67,69.87,2.67c23.5,0,46.87-0.89,69.87-2.67c7.74-0.51,15.37-1.27,22.99-2.03
				c14.61-1.52,28.97-3.3,43.32-5.46c7.49-1.14,14.99-2.29,22.35-3.68c7.49-1.27,14.86-2.67,22.23-4.19
				c6.86-1.4,13.72-2.92,20.58-4.32c15.25-3.56,30.36-7.37,45.35-11.56c7.23-2.16,14.48-4.19,21.72-6.48
				c0.63-0.13,1.14-0.25,1.77-0.51c13.84-4.32,27.56-9.02,41.16-13.97c0.51-0.25,1.02-0.38,1.53-0.64c0.76-0.25,1.53-0.51,2.28-0.89
				c11.44-4.06,22.74-8.51,33.92-13.21c1.4-0.64,2.79-1.14,4.19-1.78c0.12,0,0.25-0.13,0.38-0.13c6.72-2.79,13.46-5.84,20.2-8.76
				c201.34-90.95,363.56-253.17,454.52-454.52c2.92-6.73,5.84-13.46,8.76-20.2c0.12-0.25,0.26-0.63,0.38-0.89
				c5.58-13.34,11.05-26.68,16-40.4c6.23-17.02,11.95-34.42,17.16-51.96c1.51-4.57,2.79-9.15,4.06-13.72
				c1.91-6.48,3.56-13.08,5.33-19.69c3.81-14.61,7.24-29.22,10.16-43.95c3.05-14.73,5.72-29.72,8.01-44.71
				c0.88-5.97,1.77-12.07,2.53-18.17c1.15-9.02,2.29-18.16,3.18-27.31c0.77-7.62,1.53-15.24,2.03-22.99
				c1.79-22.99,2.67-46.37,2.67-69.87C1817.17,885.15,1816.29,861.78,1814.51,838.78z M908.53,1640.98
				c-167.05,0-321.14-56.27-444.48-150.78l134.4-232.59h953.87C1428.08,1485.75,1186.09,1640.98,908.53,1640.98z M627.66,232.34
				l179.62,310.97L334.22,1362.4c-98.83-124.75-157.91-282.52-157.91-453.75C176.32,604.29,362.93,342.73,627.66,232.34z
				 M883.25,762.82l25.28-43.7l104.16,180.51l52.72,91.21l52.21,90.45H700.19L883.88,763.2L883.25,762.82z M1620.27,1081.29h-299.54
				l-74.57-129.95l-79.01-136.81l-52.59-91.34L803.35,183.94c34.3-4.95,69.48-7.62,105.18-7.62c403.83,0,732.32,328.5,732.32,732.33
				C1640.85,968.1,1633.61,1025.9,1620.27,1081.29z"/>
		</g>
		<linearGradient id="SVGID_2_" gradientUnits="userSpaceOnUse" x1="266.0851" y1="1551.1346" x2="1551.0526" y2="266.1671">
			<stop  offset="5.586592e-03" style="stop-color:#FFFFFF;stop-opacity:0.4"/>
			<stop  offset="0.5307" style="stop-color:#FFFFFF;stop-opacity:0"/>
			<stop  offset="1" style="stop-color:#FFFFFF;stop-opacity:0.4"/>
		</linearGradient>
		<path class="st2" d="M1814.51,838.78c-0.51-7.75-1.27-15.37-2.03-22.99c-0.88-9.15-2.02-18.29-3.18-27.31
			c-0.76-6.1-1.65-12.2-2.53-18.17c-2.42-15.12-5.09-29.98-8.01-44.72c-3.04-14.86-6.48-29.47-10.16-43.95
			c-1.77-6.61-3.42-13.21-5.33-19.69c-1.27-4.57-2.54-9.15-4.06-13.72c-5.21-17.53-10.93-34.93-17.16-51.96
			c-4.95-13.72-10.42-27.06-16-40.39c-0.12-0.25-0.26-0.64-0.38-0.89c-2.92-6.73-5.84-13.46-8.76-20.2
			c-90.96-201.34-253.18-363.56-454.52-454.52c-6.74-2.92-13.47-5.97-20.2-8.77c-0.14,0-0.26-0.13-0.38-0.13
			c-13.34-5.59-26.81-10.92-40.39-15.88c-0.51-0.25-1.02-0.38-1.53-0.63c-13.6-4.96-27.32-9.65-41.16-13.97
			c-0.63-0.25-1.14-0.38-1.77-0.51c-7.24-2.29-14.49-4.32-21.72-6.48c-15-4.19-30.11-8-45.35-11.56c-6.86-1.4-13.72-2.92-20.58-4.32
			c-7.37-1.52-14.74-2.92-22.23-4.19c-7.37-1.4-14.86-2.54-22.35-3.68C1030.35,8,1016,6.22,1001.38,4.7
			c-7.62-0.76-15.25-1.52-22.99-2.03C955.4,0.89,932.03,0,908.53,0c-23.51,0-46.88,0.89-69.87,2.67c-7.75,0.51-15.37,1.27-23,2.03
			c-14.6,1.52-28.97,3.3-43.32,5.46c-7.49,1.14-14.99,2.29-22.35,3.68c-7.49,1.27-14.86,2.67-22.23,4.19
			c-6.86,1.4-13.72,2.92-20.58,4.32c-15.25,3.56-30.36,7.37-45.35,11.56c-7.23,2.16-14.48,4.19-21.72,6.48
			c-0.63,0.13-1.14,0.25-1.77,0.51c-10.54,3.3-21.09,6.73-31.37,10.42c-10.3,3.68-20.7,7.49-31,11.56c-0.25,0-0.37,0.13-0.51,0.13
			c-6.86,2.79-13.72,5.59-20.58,8.51c-6.72,2.8-13.46,5.84-20.2,8.77c-60.46,27.31-117.24,60.97-169.71,100.23
			c-5.84,4.32-11.56,8.77-17.28,13.34c-34.42,26.93-66.82,56.4-96.92,88.03c-8.51,8.89-16.9,18.04-25.02,27.44
			c-6.35,7.11-12.58,14.48-18.81,21.85c-9.02,11.05-17.79,22.36-26.42,33.79c-4.32,5.84-8.63,11.81-12.83,17.66
			c-8.51,11.94-16.65,24.01-24.51,36.33c-7.88,12.32-15.51,24.77-22.74,37.47c-3.82,6.48-7.37,12.96-11.05,19.56
			C95.53,501.52,82.83,527.94,71.39,555c-5.84,13.85-11.44,27.95-16.64,42.3c-4.96,13.59-9.53,27.31-13.86,41.16
			c-2.28,7.11-4.44,14.23-6.48,21.47c-2.03,7.24-3.93,14.36-5.84,21.72c-3.68,14.48-7.11,29.09-10.16,43.95
			c-2.93,14.74-5.59,29.6-8,44.72c-0.89,5.97-1.79,12.07-2.54,18.17c-1.14,9.02-2.28,18.16-3.18,27.31
			c-0.76,7.62-1.53,15.24-2.03,22.99C0.89,861.78,0,885.15,0,908.65c0,23.5,0.89,46.87,2.67,69.87c0.51,7.75,1.28,15.37,2.03,22.99
			c0.89,9.15,2.03,18.29,3.18,27.31c0.76,6.1,1.65,12.19,2.54,18.17c2.41,15.12,5.07,29.98,8,44.71
			c3.05,14.86,6.48,29.47,10.16,43.95c1.91,7.37,3.81,14.48,5.84,21.72c2.03,7.24,4.19,14.35,6.48,21.47
			c4.33,13.85,8.89,27.56,13.86,41.16c5.2,14.35,10.79,28.45,16.64,42.3c11.44,27.06,24.14,53.48,37.99,79.01
			c3.68,6.6,7.23,13.08,11.05,19.56c7.23,12.7,14.86,25.15,22.74,37.47c7.86,12.32,16,24.39,24.51,36.33
			c4.19,5.84,8.51,11.81,12.83,17.66c8.63,11.43,17.4,22.74,26.42,33.79c6.23,7.37,12.45,14.74,18.81,21.85
			c8.13,9.4,16.51,18.55,25.02,27.44c30.11,31.63,62.5,61.1,96.92,88.03c5.72,4.57,11.44,9.02,17.28,13.34
			c52.46,39.25,109.24,72.92,169.71,100.23c6.74,2.92,13.47,5.97,20.2,8.76c6.86,2.92,13.72,5.72,20.58,8.51
			c0.14,0,0.26,0.13,0.51,0.13c10.3,4.06,20.7,7.88,31,11.56c10.28,3.68,20.83,7.11,31.37,10.42c0.63,0.25,1.14,0.38,1.77,0.51
			c7.24,2.29,14.49,4.32,21.72,6.48c15,4.19,30.11,8,45.35,11.56c6.86,1.4,13.72,2.92,20.58,4.32c7.37,1.52,14.74,2.92,22.23,4.19
			c7.37,1.4,14.86,2.54,22.35,3.68c14.35,2.16,28.72,3.94,43.32,5.46c7.63,0.76,15.25,1.53,23,2.03
			c22.99,1.78,46.36,2.67,69.87,2.67c23.5,0,46.87-0.89,69.87-2.67c7.74-0.51,15.37-1.27,22.99-2.03
			c14.61-1.52,28.97-3.3,43.32-5.46c7.49-1.14,14.99-2.29,22.35-3.68c7.49-1.27,14.86-2.67,22.23-4.19
			c6.86-1.4,13.72-2.92,20.58-4.32c15.25-3.56,30.36-7.37,45.35-11.56c7.23-2.16,14.48-4.19,21.72-6.48
			c0.63-0.13,1.14-0.25,1.77-0.51c13.84-4.32,27.56-9.02,41.16-13.97c0.51-0.25,1.02-0.38,1.53-0.64c0.76-0.25,1.53-0.51,2.28-0.89
			c11.44-4.19,22.74-8.51,33.92-13.21c1.4-0.64,2.79-1.14,4.19-1.78c0.12,0,0.25-0.13,0.38-0.13c6.72-2.79,13.46-5.84,20.2-8.76
			c201.34-90.95,363.56-253.17,454.52-454.52c2.92-6.73,5.84-13.46,8.76-20.2c0.12-0.25,0.26-0.63,0.38-0.89
			c5.58-13.34,11.05-26.68,16-40.4c6.23-17.02,11.95-34.42,17.16-51.96c1.51-4.57,2.79-9.15,4.06-13.72
			c1.91-6.48,3.56-13.08,5.33-19.69c3.68-14.48,7.12-29.09,10.16-43.95c2.93-14.73,5.59-29.6,8.01-44.71
			c0.88-5.97,1.77-12.07,2.53-18.17c1.15-9.02,2.29-18.16,3.18-27.31c0.77-7.62,1.53-15.24,2.03-22.99
			c1.79-22.99,2.67-46.37,2.67-69.87C1817.17,885.15,1816.29,861.78,1814.51,838.78z M908.53,1746.55
			c-462.01,0-837.89-375.88-837.89-837.89S446.52,70.76,908.53,70.76c462.14,0,838.02,375.88,838.02,837.89
			S1370.67,1746.55,908.53,1746.55z"/>
	</g>
	<polygon class="st0" points="1117.62,1081.29 700.19,1081.29 908.53,719.12 	"/>
	<radialGradient id="SVGID_3_" cx="908.9086" cy="900.1125" r="625.1462" gradientUnits="userSpaceOnUse">
		<stop  offset="0" style="stop-color:#FFFFFF;stop-opacity:0.4"/>
		<stop  offset="1" style="stop-color:#F0F1F1;stop-opacity:0"/>
	</radialGradient>
	<circle class="st3" cx="908.91" cy="900.11" r="625.15"/>
</g>
</svg>
