<?xml version="1.0" encoding="utf-8"?>
<!-- Generator: Adobe Illustrator 24.1.3, SVG Export Plug-In . SVG Version: 6.00 Build 0)  -->
<svg version="1.1" id="Layer_1" xmlns="http://www.w3.org/2000/svg" xmlns:xlink="http://www.w3.org/1999/xlink" x="0px" y="0px"
	 viewBox="0 0 3856.54 936.41" style="enable-background:new 0 0 3856.54 936.41;" xml:space="preserve">
<style type="text/css">
	.st0{fill:#FFFFFF;}
	.st1{fill:url(#SVGID_1_);}
	.st2{fill:url(#SVGID_2_);}
	.st3{fill:url(#SVGID_3_);}
	.st4{fill:url(#SVGID_4_);}
	.st5{fill:url(#SVGID_5_);}
	.st6{fill:url(#SVGID_6_);}
	.st7{fill:url(#SVGID_7_);}
	.st8{fill:url(#SVGID_8_);}
	.st9{fill:url(#SVGID_9_);}
	.st10{fill:url(#SVGID_10_);}
	.st11{fill:url(#SVGID_11_);}
	.st12{fill:url(#SVGID_12_);}
</style>
<g>
	<g>
		<path class="st0" d="M1269.49,569h-115.64l-21.49,53.13h-78.92l120.72-273.47h76.18l121.11,273.47h-80.48L1269.49,569z
			 M1246.83,511.96l-35.16-87.51l-35.16,87.51H1246.83z"/>
		<path class="st0" d="M1531.62,406.87v66.81c-6.64-0.78-11.33-1.17-16.8-1.17c-30.08,0-50.79,15.23-50.79,52.35v97.28h-74.22
			V410.39h70.71v25.39C1475.75,416.64,1500.37,406.87,1531.62,406.87z"/>
		<path class="st0" d="M1799.22,515.87c0,67.59-46.49,109.78-103.92,109.78c-27.74,0-48.44-7.81-62.51-24.61v21.1h-70.71V332.25
			h74.22v96.49c14.46-14.84,34.38-21.88,58.99-21.88C1752.73,406.87,1799.22,448.67,1799.22,515.87z M1724.21,515.87
			c0-32.03-19.53-50.01-44.53-50.01c-25,0-44.54,17.97-44.54,50.01c0,32.43,19.54,50.79,44.54,50.79
			C1704.68,566.66,1724.21,548.29,1724.21,515.87z"/>
		<path class="st0" d="M1825.39,347.49c0-22.27,17.97-39.46,45.32-39.46c27.35,0,45.32,16.02,45.32,38.28
			c0,23.44-17.97,40.63-45.32,40.63C1843.36,386.95,1825.39,369.76,1825.39,347.49z M1833.6,410.39h74.22v211.74h-74.22V410.39z"/>
		<path class="st0" d="M2101.98,613.54c-12.89,8.2-32.03,12.11-51.57,12.11c-54.3,0-85.95-26.57-85.95-80.87v-71.1h-30.86V418.2
			h30.86v-55.08h74.23v55.08h48.44v55.47h-48.44V544c0,15.63,8.98,24.22,22.27,24.22c8.2,0,16.41-2.35,22.66-6.64L2101.98,613.54z"
			/>
		<path class="st0" d="M2272.3,406.87v66.81c-6.64-0.78-11.33-1.17-16.8-1.17c-30.08,0-50.79,15.23-50.79,52.35v97.28h-74.22V410.39
			h70.71v25.39C2216.44,416.64,2241.05,406.87,2272.3,406.87z"/>
		<path class="st0" d="M2499.67,504.54v117.59h-69.15v-27.35c-10.55,20.32-31.64,30.86-62.51,30.86
			c-50.79,0-78.91-28.52-78.91-65.24c0-39.07,28.52-63.29,94.15-63.29h42.19c-1.17-21.49-15.63-33.6-44.92-33.6
			c-20.32,0-42.97,7.03-57.43,18.36l-25-50.4c24.22-16.02,60.16-24.61,93.37-24.61C2460.21,406.87,2499.67,437.34,2499.67,504.54z
			 M2425.44,554.15v-18.36h-32.03c-23.83,0-32.43,8.6-32.43,21.49c0,12.5,10.16,21.49,27.74,21.49
			C2405.13,578.76,2419.58,570.95,2425.44,554.15z"/>
		<path class="st0" d="M2777.42,410.39v173.07c0,80.09-45.31,117.98-124.23,117.98c-40.63,0-79.31-9.38-105.09-27.74l26.96-51.96
			c17.58,14.06,46.49,22.66,71.49,22.66c39.85,0,56.65-17.97,56.65-51.18v-7.03c-14.45,16.8-35.94,25-62.9,25
			c-56.26,0-103.92-39.85-103.92-102.36c0-62.11,47.66-101.96,103.92-101.96c29.3,0,51.96,9.38,66.42,29.3v-25.79H2777.42z
			 M2703.98,508.84c0-25.78-19.54-42.97-46.1-42.97c-26.56,0-46.49,17.19-46.49,42.97c0,25.79,19.93,43.37,46.49,43.37
			C2684.45,552.2,2703.98,534.62,2703.98,508.84z"/>
		<path class="st0" d="M3040.34,535.01h-153.92c6.25,21.49,24.61,33.99,51.96,33.99c20.71,0,34.38-5.86,48.83-18.36l39.07,40.63
			c-20.32,22.66-50.01,34.38-90.24,34.38c-75.4,0-124.23-46.49-124.23-109.78c0-63.68,49.62-109,116.42-109
			c62.5,0,113.29,39.85,113.29,109.78C3041.51,522.12,3040.73,529.15,3040.34,535.01z M2885.25,495.94h86.73
			c-3.91-22.27-20.32-36.33-43.36-36.33C2905.56,459.61,2889.54,473.68,2885.25,495.94z"/>
		<linearGradient id="SVGID_1_" gradientUnits="userSpaceOnUse" x1="3072.3706" y1="522.1181" x2="3823.2231" y2="522.1181">
			<stop  offset="0" style="stop-color:#FFB12D"/>
			<stop  offset="1" style="stop-color:#FF7F2D"/>
		</linearGradient>
		<path class="st1" d="M3072.37,485.4c0-79.69,60.94-139.08,143.76-139.08c82.04,0,143.37,58.99,143.37,139.08
			s-61.33,139.08-143.37,139.08C3133.31,624.47,3072.37,565.09,3072.37,485.4z M3330.6,485.4c0-65.24-48.84-113.29-114.47-113.29
			c-66.03,0-115.25,48.05-115.25,113.29c0,65.24,49.22,113.29,115.25,113.29C3281.77,598.69,3330.6,550.64,3330.6,485.4z
			 M3626.72,519.38c0,62.51-43.75,104.7-102.36,104.7c-32.82,0-60.94-14.06-78.13-40.63v114.47h-27.74V416.64h26.56v40.63
			c16.8-27.35,45.32-42.19,79.3-42.19C3582.96,415.08,3626.72,457.27,3626.72,519.38z M3598.98,519.38
			c0-47.66-33.21-80.09-76.57-80.09c-43.75,0-76.57,32.43-76.57,80.09c0,48.05,32.82,80.09,76.57,80.09
			C3565.77,599.47,3598.98,567.44,3598.98,519.38z M3654.85,598.69l12.5-21.88c16.41,12.89,44.15,23.05,73.06,23.05
			c39.07,0,55.08-13.28,55.08-33.6c0-53.52-133.22-11.33-133.22-92.59c0-33.6,28.91-58.6,81.26-58.6c26.56,0,55.47,7.42,72.66,19.14
			l-12.11,22.27c-17.97-12.5-39.46-17.58-60.55-17.58c-37.12,0-53.52,14.45-53.52,33.99c0,55.47,133.22,13.67,133.22,92.59
			c0,35.55-31.25,58.6-84.78,58.6C3704.46,624.08,3671.65,613.14,3654.85,598.69z"/>
	</g>
	<g>
		<g>
			<g>
				<radialGradient id="SVGID_2_" cx="458.8753" cy="468.2064" r="425.571" gradientUnits="userSpaceOnUse">
					<stop  offset="0" style="stop-color:#FFB12D"/>
					<stop  offset="1" style="stop-color:#FF7F2D"/>
				</radialGradient>
				<path class="st2" d="M883.18,435.48c-0.24-3.63-0.59-7.2-0.95-10.77c-0.41-4.28-0.95-8.57-1.49-12.79
					c-0.35-2.86-0.77-5.71-1.19-8.51c-1.07-7.02-2.32-14.04-3.75-20.94c-1.37-6.9-2.97-13.74-4.76-20.59
					c-0.83-3.09-1.6-6.19-2.5-9.22c-0.59-2.14-1.19-4.28-1.9-6.43c-2.44-8.21-5.12-16.36-8.04-24.34
					c-2.32-6.43-4.88-12.67-7.5-18.92c-0.06-0.12-0.12-0.3-0.18-0.42c-1.37-3.15-2.74-6.31-4.1-9.46
					c-42.6-94.3-118.58-170.28-212.88-212.88c-3.15-1.37-6.31-2.8-9.46-4.11c-0.06,0-0.12-0.06-0.18-0.06
					c-6.25-2.62-12.56-5.12-18.92-7.44c-0.24-0.12-0.48-0.18-0.71-0.3c-6.37-2.32-12.79-4.52-19.28-6.55
					c-0.3-0.12-0.53-0.18-0.83-0.24c-3.39-1.07-6.79-2.02-10.17-3.03c-7.02-1.96-14.1-3.75-21.24-5.41
					c-3.21-0.65-6.43-1.37-9.64-2.02c-3.45-0.71-6.9-1.37-10.41-1.96c-3.45-0.66-6.96-1.19-10.47-1.73
					c-6.72-1.01-13.45-1.84-20.29-2.56c-3.57-0.36-7.14-0.71-10.77-0.95c-10.77-0.83-21.72-1.25-32.72-1.25
					c-11.01,0-21.96,0.42-32.72,1.25c-3.63,0.24-7.2,0.6-10.77,0.95c-6.84,0.71-13.57,1.55-20.29,2.56
					c-3.51,0.54-7.02,1.07-10.47,1.73c-3.51,0.59-6.96,1.25-10.41,1.96c-3.21,0.65-6.43,1.37-9.64,2.02
					c-7.14,1.67-14.22,3.45-21.24,5.41c-3.39,1.01-6.78,1.96-10.17,3.03c-0.3,0.06-0.53,0.12-0.83,0.24
					c-4.94,1.55-9.88,3.15-14.69,4.88c-4.82,1.73-9.7,3.51-14.52,5.41c-0.12,0-0.17,0.06-0.24,0.06c-3.21,1.31-6.43,2.62-9.64,3.99
					c-3.15,1.31-6.3,2.74-9.46,4.11c-28.32,12.79-54.91,28.56-79.49,46.94c-2.74,2.02-5.42,4.11-8.09,6.25
					c-16.12,12.61-31.29,26.42-45.4,41.23c-3.99,4.17-7.91,8.45-11.72,12.85c-2.97,3.33-5.89,6.78-8.81,10.23
					c-4.22,5.18-8.33,10.47-12.38,15.83c-2.02,2.74-4.04,5.53-6.01,8.27c-4.04,5.53-7.86,11.25-11.48,17.02
					c-3.75,5.71-7.32,11.6-10.65,17.55c-1.79,3.03-3.45,6.07-5.18,9.16c-6.48,11.96-12.43,24.34-17.79,37.01
					c-2.74,6.49-5.36,13.09-7.79,19.81c-2.38,6.37-4.53,12.79-6.49,19.28c-1.07,3.33-2.08,6.66-3.03,10.05
					c-0.95,3.39-1.84,6.72-2.74,10.17c-1.78,6.84-3.39,13.68-4.76,20.59c-1.37,6.9-2.62,13.86-3.75,20.94
					c-0.42,2.8-0.84,5.65-1.19,8.51c-0.53,4.22-1.07,8.51-1.49,12.79c-0.35,3.57-0.71,7.14-0.95,10.77
					c-0.83,10.77-1.25,21.72-1.25,32.72c0,11.01,0.42,21.95,1.25,32.72c0.24,3.63,0.6,7.2,0.95,10.77
					c0.42,4.28,0.95,8.57,1.49,12.79c0.35,2.86,0.77,5.71,1.19,8.51c1.13,7.08,2.38,14.04,3.75,20.94
					c1.37,6.9,2.97,13.74,4.76,20.59c0.89,3.45,1.78,6.78,2.74,10.17c0.95,3.39,1.96,6.72,3.03,10.06
					c1.96,6.49,4.11,12.91,6.49,19.28c2.43,6.72,5.05,13.33,7.79,19.81c5.36,12.67,11.31,25.05,17.79,37.01
					c1.73,3.09,3.39,6.13,5.18,9.16c3.33,5.95,6.9,11.84,10.65,17.55c3.63,5.77,7.44,11.48,11.48,17.02
					c1.96,2.74,3.99,5.53,6.01,8.27c4.04,5.35,8.15,10.65,12.38,15.83c2.92,3.45,5.83,6.9,8.81,10.23
					c3.81,4.4,7.73,8.69,11.72,12.85c14.1,14.81,29.27,28.62,45.4,41.23c2.68,2.14,5.36,4.22,8.09,6.25
					c24.57,18.38,51.17,34.15,79.49,46.94c3.15,1.37,6.31,2.8,9.46,4.1c3.21,1.37,6.43,2.68,9.64,3.99c0.06,0,0.12,0.06,0.24,0.06
					c4.82,1.9,9.7,3.69,14.52,5.41c4.82,1.73,9.76,3.33,14.69,4.88c0.3,0.12,0.53,0.18,0.83,0.24c3.39,1.07,6.79,2.02,10.17,3.03
					c7.02,1.96,14.1,3.75,21.24,5.41c3.21,0.65,6.43,1.37,9.64,2.02c3.45,0.71,6.9,1.37,10.41,1.96c3.45,0.66,6.96,1.19,10.47,1.73
					c6.72,1.01,13.45,1.84,20.29,2.56c3.57,0.36,7.14,0.71,10.77,0.95c10.77,0.83,21.71,1.25,32.72,1.25c11,0,21.95-0.42,32.72-1.25
					c3.63-0.24,7.2-0.6,10.77-0.95c6.84-0.71,13.57-1.55,20.29-2.56c3.51-0.54,7.02-1.07,10.47-1.73c3.51-0.59,6.96-1.25,10.41-1.96
					c3.21-0.65,6.43-1.37,9.64-2.02c7.14-1.67,14.22-3.45,21.24-5.41c3.39-1.01,6.78-1.96,10.17-3.03c0.3-0.06,0.53-0.12,0.83-0.24
					c6.48-2.02,12.91-4.22,19.28-6.55c0.24-0.12,0.48-0.18,0.71-0.3c0.35-0.12,0.71-0.24,1.07-0.42c5.36-1.9,10.65-3.99,15.89-6.19
					c0.66-0.3,1.31-0.54,1.96-0.83c0.06,0,0.12-0.06,0.18-0.06c3.15-1.31,6.3-2.74,9.46-4.1c94.3-42.6,170.28-118.58,212.88-212.88
					c1.37-3.15,2.74-6.31,4.1-9.46c0.06-0.12,0.12-0.3,0.18-0.42c2.61-6.25,5.18-12.5,7.5-18.92c2.92-7.97,5.6-16.12,8.04-24.33
					c0.71-2.14,1.31-4.28,1.9-6.43c0.89-3.03,1.67-6.13,2.5-9.22c1.78-6.84,3.39-13.68,4.76-20.59c1.43-6.9,2.68-13.92,3.75-20.94
					c0.41-2.8,0.83-5.65,1.19-8.51c0.54-4.22,1.07-8.51,1.49-12.79c0.36-3.57,0.71-7.14,0.95-10.77
					c0.84-10.77,1.25-21.72,1.25-32.72C884.43,457.2,884.02,446.25,883.18,435.48z M458.85,811.21
					c-78.24,0-150.41-26.36-208.18-70.62l62.95-108.94h446.77C702.19,738.5,588.85,811.21,458.85,811.21z M327.3,151.44
					l84.13,145.65L189.86,680.73c-46.29-58.43-73.96-132.32-73.96-212.53C115.9,325.65,203.31,203.14,327.3,151.44z M447.01,399.9
					l11.84-20.47l48.78,84.55l24.69,42.72l24.46,42.36H361.27l86.03-148.98L447.01,399.9z M792.21,549.06h-140.3l-34.93-60.87
					l-37.01-64.08l-24.63-42.78L409.58,128.77c16.07-2.32,32.54-3.57,49.27-3.57c189.14,0,343,153.86,343,343
					C801.85,496.05,798.46,523.12,792.21,549.06z"/>
			</g>
			<linearGradient id="SVGID_3_" gradientUnits="userSpaceOnUse" x1="157.9462" y1="769.1273" x2="759.7883" y2="167.2852">
				<stop  offset="5.586592e-03" style="stop-color:#FFFFFF;stop-opacity:0.4"/>
				<stop  offset="0.5307" style="stop-color:#FFFFFF;stop-opacity:0"/>
				<stop  offset="1" style="stop-color:#FFFFFF;stop-opacity:0.4"/>
			</linearGradient>
			<path class="st3" d="M883.18,435.48c-0.24-3.63-0.59-7.2-0.95-10.77c-0.41-4.28-0.95-8.57-1.49-12.79
				c-0.35-2.86-0.77-5.71-1.19-8.51c-1.13-7.08-2.38-14.04-3.75-20.94c-1.42-6.96-3.03-13.8-4.76-20.59
				c-0.83-3.09-1.6-6.19-2.5-9.22c-0.59-2.14-1.19-4.28-1.9-6.43c-2.44-8.21-5.12-16.36-8.04-24.34c-2.32-6.43-4.88-12.67-7.5-18.92
				c-0.06-0.12-0.12-0.3-0.18-0.42c-1.37-3.15-2.74-6.31-4.1-9.46c-42.6-94.3-118.58-170.28-212.88-212.88
				c-3.15-1.37-6.31-2.8-9.46-4.11c-0.06,0-0.12-0.06-0.18-0.06c-6.25-2.62-12.56-5.12-18.92-7.44c-0.24-0.12-0.48-0.18-0.71-0.3
				c-6.37-2.32-12.79-4.52-19.28-6.55c-0.3-0.12-0.53-0.18-0.83-0.24c-3.39-1.07-6.79-2.02-10.17-3.03
				c-7.02-1.96-14.1-3.75-21.24-5.41c-3.21-0.65-6.43-1.37-9.64-2.02c-3.45-0.71-6.9-1.37-10.41-1.96
				c-3.45-0.66-6.96-1.19-10.47-1.73c-6.72-1.01-13.45-1.84-20.29-2.56c-3.57-0.36-7.14-0.71-10.77-0.95
				c-10.77-0.83-21.72-1.25-32.72-1.25c-11.01,0-21.96,0.42-32.72,1.25c-3.63,0.24-7.2,0.6-10.77,0.95
				c-6.84,0.71-13.57,1.55-20.29,2.56c-3.51,0.54-7.02,1.07-10.47,1.73c-3.51,0.59-6.96,1.25-10.41,1.96
				c-3.21,0.65-6.43,1.37-9.64,2.02c-7.14,1.67-14.22,3.45-21.24,5.41c-3.39,1.01-6.78,1.96-10.17,3.03
				c-0.3,0.06-0.53,0.12-0.83,0.24c-4.94,1.55-9.88,3.15-14.69,4.88c-4.82,1.73-9.7,3.51-14.52,5.41c-0.12,0-0.17,0.06-0.24,0.06
				c-3.21,1.31-6.43,2.62-9.64,3.99c-3.15,1.31-6.3,2.74-9.46,4.11c-28.32,12.79-54.91,28.56-79.49,46.94
				c-2.74,2.02-5.42,4.11-8.09,6.25c-16.12,12.61-31.29,26.42-45.4,41.23c-3.99,4.17-7.91,8.45-11.72,12.85
				c-2.97,3.33-5.89,6.78-8.81,10.23c-4.22,5.18-8.33,10.47-12.38,15.83c-2.02,2.74-4.04,5.53-6.01,8.27
				c-3.99,5.59-7.8,11.25-11.48,17.02c-3.69,5.77-7.26,11.6-10.65,17.55c-1.79,3.03-3.45,6.07-5.18,9.16
				c-6.48,11.96-12.43,24.34-17.79,37.01c-2.74,6.49-5.36,13.09-7.79,19.81c-2.32,6.37-4.46,12.79-6.49,19.28
				c-1.07,3.33-2.08,6.66-3.03,10.05c-0.95,3.39-1.84,6.72-2.74,10.17c-1.73,6.78-3.33,13.62-4.76,20.59
				c-1.37,6.9-2.62,13.86-3.75,20.94c-0.42,2.8-0.84,5.65-1.19,8.51c-0.53,4.22-1.07,8.51-1.49,12.79
				c-0.35,3.57-0.71,7.14-0.95,10.77c-0.83,10.77-1.25,21.72-1.25,32.72c0,11.01,0.42,21.95,1.25,32.72
				c0.24,3.63,0.6,7.2,0.95,10.77c0.42,4.28,0.95,8.57,1.49,12.79c0.35,2.86,0.77,5.71,1.19,8.51c1.13,7.08,2.38,14.04,3.75,20.94
				c1.43,6.96,3.03,13.8,4.76,20.59c0.89,3.45,1.78,6.78,2.74,10.17c0.95,3.39,1.96,6.72,3.03,10.06
				c2.03,6.49,4.17,12.91,6.49,19.28c2.43,6.72,5.05,13.33,7.79,19.81c5.36,12.67,11.31,25.05,17.79,37.01
				c1.73,3.09,3.39,6.13,5.18,9.16c3.39,5.95,6.96,11.78,10.65,17.55c3.68,5.77,7.5,11.42,11.48,17.02
				c1.96,2.74,3.99,5.53,6.01,8.27c4.04,5.35,8.15,10.65,12.38,15.83c2.92,3.45,5.83,6.9,8.81,10.23c3.81,4.4,7.73,8.69,11.72,12.85
				c14.1,14.81,29.27,28.62,45.4,41.23c2.68,2.14,5.36,4.22,8.09,6.25c24.57,18.38,51.17,34.15,79.49,46.94
				c3.15,1.37,6.31,2.8,9.46,4.1c3.21,1.37,6.43,2.68,9.64,3.99c0.06,0,0.12,0.06,0.24,0.06c4.82,1.9,9.7,3.69,14.52,5.41
				c4.82,1.73,9.76,3.33,14.69,4.88c0.3,0.12,0.53,0.18,0.83,0.24c3.39,1.07,6.79,2.02,10.17,3.03c7.02,1.96,14.1,3.75,21.24,5.41
				c3.21,0.65,6.43,1.37,9.64,2.02c3.45,0.71,6.9,1.37,10.41,1.96c3.45,0.66,6.96,1.19,10.47,1.73c6.72,1.01,13.45,1.84,20.29,2.56
				c3.57,0.36,7.14,0.71,10.77,0.95c10.77,0.83,21.71,1.25,32.72,1.25c11,0,21.95-0.42,32.72-1.25c3.63-0.24,7.2-0.6,10.77-0.95
				c6.84-0.71,13.57-1.55,20.29-2.56c3.51-0.54,7.02-1.07,10.47-1.73c3.51-0.59,6.96-1.25,10.41-1.96c3.21-0.65,6.43-1.37,9.64-2.02
				c7.14-1.67,14.22-3.45,21.24-5.41c3.39-1.01,6.78-1.96,10.17-3.03c0.3-0.06,0.53-0.12,0.83-0.24c6.48-2.02,12.91-4.22,19.28-6.55
				c0.24-0.12,0.48-0.18,0.71-0.3c0.35-0.12,0.71-0.24,1.07-0.42c5.36-1.96,10.65-3.99,15.89-6.19c0.66-0.3,1.31-0.54,1.96-0.83
				c0.06,0,0.12-0.06,0.18-0.06c3.15-1.31,6.3-2.74,9.46-4.1c94.3-42.6,170.28-118.58,212.88-212.88c1.37-3.15,2.74-6.31,4.1-9.46
				c0.06-0.12,0.12-0.3,0.18-0.42c2.61-6.25,5.18-12.5,7.5-18.92c2.92-7.97,5.6-16.12,8.04-24.33c0.71-2.14,1.31-4.28,1.9-6.43
				c0.89-3.03,1.67-6.13,2.5-9.22c1.73-6.78,3.34-13.63,4.76-20.59c1.37-6.9,2.62-13.86,3.75-20.94c0.41-2.8,0.83-5.65,1.19-8.51
				c0.54-4.22,1.07-8.51,1.49-12.79c0.36-3.57,0.71-7.14,0.95-10.77c0.84-10.77,1.25-21.72,1.25-32.72
				C884.43,457.2,884.02,446.25,883.18,435.48z M458.85,860.65C242.46,860.65,66.4,684.6,66.4,468.21S242.46,75.76,458.85,75.76
				c216.45,0,392.5,176.05,392.5,392.45S675.3,860.65,458.85,860.65z"/>
		</g>
		<polygon class="st0" points="556.78,549.06 361.27,549.06 458.85,379.44 		"/>
		<radialGradient id="SVGID_4_" cx="459.0264" cy="464.2071" r="292.8006" gradientUnits="userSpaceOnUse">
			<stop  offset="0" style="stop-color:#FFFFFF;stop-opacity:0.4"/>
			<stop  offset="1" style="stop-color:#F0F1F1;stop-opacity:0"/>
		</radialGradient>
		<circle class="st4" cx="459.03" cy="464.21" r="292.8"/>
	</g>
</g>
</svg>
