<?xml version="1.0" encoding="utf-8"?>
<!-- Generator: Adobe Illustrator 22.1.0, SVG Export Plug-In . SVG Version: 6.00 Build 0)  -->
<svg version="1.1" id="Layer_1" xmlns="http://www.w3.org/2000/svg" xmlns:xlink="http://www.w3.org/1999/xlink" x="0px" y="0px"
	 viewBox="0 0 2750 920" style="enable-background:new 0 0 2750 920;" xml:space="preserve">
<style type="text/css">
	.st0{fill:url(#SVGID_1_);}
	.st1{fill:#FFFFFF;}
	.st2{fill:url(#SVGID_2_);}
	.st3{fill:url(#SVGID_3_);}
	.st4{fill:url(#SVGID_4_);}
</style>
<g>
	<g>
		
			<linearGradient id="SVGID_1_" gradientUnits="userSpaceOnUse" x1="1956.233" y1="405.675" x2="2707.093" y2="405.675" gradientTransform="matrix(1 0 0 -1 0 919.59)">
			<stop  offset="2.165098e-07" style="stop-color:#00B1CC"/>
			<stop  offset="1" style="stop-color:#008296"/>
		</linearGradient>
		<path class="st0" d="M1956.2,477.2c0-79.7,60.9-139.1,143.8-139.1c82,0,143.4,59,143.4,139.1S2182,616.3,2100,616.3
			C2017.2,616.3,1956.2,556.9,1956.2,477.2z M2214.5,477.2c0-65.2-48.8-113.3-114.5-113.3c-66,0-115.3,48-115.3,113.3
			S2034,590.5,2100,590.5C2165.6,590.5,2214.5,542.4,2214.5,477.2z M2510.6,511.2c0,62.5-43.8,104.7-102.4,104.7
			c-32.8,0-60.9-14.1-78.1-40.6v114.5h-27.7V408.4h26.6v40.6c16.8-27.4,45.3-42.2,79.3-42.2C2466.8,406.9,2510.6,449.1,2510.6,511.2
			z M2482.8,511.2c0-47.7-33.2-80.1-76.6-80.1c-43.8,0-76.6,32.4-76.6,80.1c0,48,32.8,80.1,76.6,80.1
			C2449.6,591.3,2482.8,559.2,2482.8,511.2z M2538.7,590.5l12.5-21.9c16.4,12.9,44.1,23,73.1,23c39.1,0,55.1-13.3,55.1-33.6
			c0-53.5-133.2-11.3-133.2-92.6c0-33.6,28.9-58.6,81.3-58.6c26.6,0,55.5,7.4,72.7,19.1l-12.1,22.3c-18-12.5-39.5-17.6-60.6-17.6
			c-37.1,0-53.5,14.5-53.5,34c0,55.5,133.2,13.7,133.2,92.6c0,35.5-31.3,58.6-84.8,58.6C2588.3,615.9,2555.5,604.9,2538.7,590.5z"/>
		<g>
			<path class="st1" d="M1282.9,563.1h-116.5l-21.6,53.5h-79.5l121.6-275.4h76.7l122,275.4h-81.1L1282.9,563.1z M1260.1,505.7
				l-35.4-88.1l-35.4,88.1H1260.1z"/>
			<path class="st1" d="M1606.4,554.8v61.8H1392v-48.8l103.1-96.4c22-20.5,25.2-33.1,25.2-44.5c0-17.7-11.8-28.3-35.4-28.3
				c-20.1,0-38.2,9-49.2,26.8l-57.8-32.3c20.9-34.6,59.8-57.4,114.1-57.4c63.4,0,107,32.7,107,83.8c0,26.8-7.5,51.2-46.8,87.4
				l-51.9,48H1606.4z"/>
			<path class="st1" d="M1831.1,563.1h-116.5l-21.6,53.5h-79.5l121.6-275.4h76.7l122,275.4h-81.1L1831.1,563.1z M1808.3,505.7
				l-35.4-88.1l-35.4,88.1H1808.3z"/>
		</g>
	</g>
	<g>
		<g>
			<g>
				
					<radialGradient id="SVGID_2_" cx="468.4621" cy="459.625" r="425.5625" gradientTransform="matrix(1 0 0 -1 0 919.59)" gradientUnits="userSpaceOnUse">
					<stop  offset="8.763494e-07" style="stop-color:#00C7E6"/>
					<stop  offset="1" style="stop-color:#008296"/>
				</radialGradient>
				<path class="st2" d="M892.8,427.3c-0.2-3.6-0.6-7.2-1-10.8c-0.4-4.3-1-8.6-1.5-12.8c-0.3-2.9-0.8-5.7-1.2-8.5
					c-1.1-7-2.3-14-3.8-20.9c-1.4-6.9-3-13.7-4.8-20.6c-0.8-3.1-1.6-6.2-2.5-9.2c-0.6-2.1-1.2-4.3-1.9-6.4c-2.4-8.2-5.1-16.4-8-24.3
					c-2.3-6.4-4.9-12.7-7.5-18.9c-0.1-0.1-0.1-0.3-0.2-0.4c-1.4-3.1-2.7-6.3-4.1-9.5C813.8,190.6,737.8,114.6,643.5,72
					c-3.2-1.4-6.3-2.8-9.5-4.1c-0.1,0-0.1-0.1-0.2-0.1c-6.3-2.6-12.6-5.1-18.9-7.4c-0.2-0.1-0.5-0.2-0.7-0.3
					c-6.4-2.3-12.8-4.5-19.3-6.5c-0.3-0.1-0.5-0.2-0.8-0.2c-3.4-1.1-6.8-2-10.2-3c-7-2-14.1-3.8-21.2-5.4c-3.2-0.7-6.4-1.4-9.6-2
					c-3.5-0.7-6.9-1.4-10.4-2c-3.5-0.7-7-1.2-10.5-1.7c-6.7-1-13.5-1.8-20.3-2.6c-3.6-0.4-7.1-0.7-10.8-1
					c-10.8-0.8-21.7-1.3-32.7-1.3c-11,0-22,0.4-32.7,1.3c-3.6,0.2-7.2,0.6-10.8,1c-6.8,0.7-13.6,1.5-20.3,2.6
					c-3.5,0.5-7,1.1-10.5,1.7c-3.5,0.6-7,1.3-10.4,2c-3.2,0.7-6.4,1.4-9.6,2c-7.1,1.7-14.2,3.5-21.2,5.4c-3.4,1-6.8,2-10.2,3
					c-0.3,0.1-0.5,0.1-0.8,0.2c-4.9,1.5-9.9,3.1-14.7,4.9c-4.8,1.7-9.7,3.5-14.5,5.4c-0.1,0-0.2,0.1-0.2,0.1c-3.2,1.3-6.4,2.6-9.6,4
					c-3.1,1.3-6.3,2.7-9.5,4.1c-28.3,12.8-54.9,28.6-79.5,46.9c-2.7,2-5.4,4.1-8.1,6.3c-16.1,12.6-31.3,26.4-45.4,41.2
					c-4,4.2-7.9,8.4-11.7,12.9c-3,3.3-5.9,6.8-8.8,10.2c-4.2,5.2-8.3,10.5-12.4,15.8c-2,2.7-4,5.5-6,8.3c-4,5.5-7.9,11.3-11.5,17
					c-3.8,5.7-7.3,11.6-10.7,17.6c-1.8,3-3.4,6.1-5.2,9.2c-6.5,12-12.4,24.3-17.8,37c-2.7,6.5-5.4,13.1-7.8,19.8
					c-2.4,6.4-4.5,12.8-6.5,19.3c-1.1,3.3-2.1,6.7-3,10c-1,3.4-1.8,6.7-2.7,10.2c-1.8,6.8-3.4,13.7-4.8,20.6
					c-1.4,6.9-2.6,13.9-3.8,20.9c-0.4,2.8-0.8,5.6-1.2,8.5c-0.5,4.2-1.1,8.5-1.5,12.8c-0.3,3.6-0.7,7.1-1,10.8
					C43.3,438,42.9,449,42.9,460c0,11,0.4,22,1.3,32.7c0.2,3.6,0.6,7.2,1,10.8c0.4,4.3,1,8.6,1.5,12.8c0.3,2.9,0.8,5.7,1.2,8.5
					c1.1,7.1,2.4,14,3.8,20.9s3,13.7,4.8,20.6c0.9,3.5,1.8,6.8,2.7,10.2c1,3.4,2,6.7,3,10.1c2,6.5,4.1,12.9,6.5,19.3
					c2.4,6.7,5.1,13.3,7.8,19.8c5.4,12.7,11.3,25,17.8,37c1.7,3.1,3.4,6.1,5.2,9.2c3.3,6,6.9,11.8,10.7,17.5
					c3.6,5.8,7.4,11.5,11.5,17c2,2.7,4,5.5,6,8.3c4,5.3,8.2,10.7,12.4,15.8c2.9,3.5,5.8,6.9,8.8,10.2c3.8,4.4,7.7,8.7,11.7,12.8
					c14.1,14.8,29.3,28.6,45.4,41.2c2.7,2.1,5.4,4.2,8.1,6.3c24.6,18.4,51.2,34.2,79.5,46.9c3.1,1.4,6.3,2.8,9.5,4.1
					c3.2,1.4,6.4,2.7,9.6,4c0.1,0,0.1,0.1,0.2,0.1c4.8,1.9,9.7,3.7,14.5,5.4c4.8,1.7,9.8,3.3,14.7,4.9c0.3,0.1,0.5,0.2,0.8,0.2
					c3.4,1.1,6.8,2,10.2,3c7,2,14.1,3.8,21.2,5.4c3.2,0.7,6.4,1.4,9.6,2c3.5,0.7,6.9,1.4,10.4,2c3.5,0.7,7,1.2,10.5,1.7
					c6.7,1,13.5,1.8,20.3,2.6c3.6,0.4,7.1,0.7,10.8,1c10.8,0.8,21.7,1.3,32.7,1.3c11,0,22-0.4,32.7-1.3c3.6-0.2,7.2-0.6,10.8-1
					c6.8-0.7,13.6-1.5,20.3-2.6c3.5-0.5,7-1.1,10.5-1.7c3.5-0.6,7-1.3,10.4-2c3.2-0.7,6.4-1.4,9.6-2c7.1-1.7,14.2-3.5,21.2-5.4
					c3.4-1,6.8-2,10.2-3c0.3-0.1,0.5-0.1,0.8-0.2c6.5-2,12.9-4.2,19.3-6.5c0.2-0.1,0.5-0.2,0.7-0.3c0.3-0.1,0.7-0.2,1.1-0.4
					c5.4-1.9,10.7-4,15.9-6.2c0.7-0.3,1.3-0.5,2-0.8c0.1,0,0.1-0.1,0.2-0.1c3.2-1.3,6.3-2.7,9.5-4.1
					c94.3-42.6,170.3-118.6,212.9-212.9c1.4-3.2,2.7-6.3,4.1-9.5c0.1-0.1,0.1-0.3,0.2-0.4c2.6-6.3,5.2-12.5,7.5-18.9
					c2.9-8,5.6-16.1,8-24.3c0.7-2.1,1.3-4.3,1.9-6.4c0.9-3,1.7-6.1,2.5-9.2c1.8-6.8,3.4-13.7,4.8-20.6c1.4-6.9,2.7-13.9,3.8-20.9
					c0.4-2.8,0.8-5.7,1.2-8.5c0.5-4.2,1.1-8.5,1.5-12.8c0.4-3.6,0.7-7.1,1-10.8c0.8-10.8,1.3-21.7,1.3-32.7
					C894,449,893.6,438,892.8,427.3z M468.4,803c-78.2,0-150.4-26.4-208.2-70.6l63-108.9H770C711.8,730.3,598.4,803,468.4,803z
					 M336.9,143.2L421,288.9L199.4,672.5c-46.3-58.4-74-132.3-74-212.5C125.5,317.4,212.9,194.9,336.9,143.2z M456.6,391.7
					l11.8-20.5l48.8,84.5l24.7,42.7l24.5,42.4H370.9l86-149L456.6,391.7z M801.8,540.9H661.5L626.6,480l-37-64.1l-24.6-42.8
					L419.2,120.6c16.1-2.3,32.5-3.6,49.3-3.6c189.1,0,343,153.9,343,343C811.4,487.8,808,514.9,801.8,540.9z"/>
			</g>
			
				<linearGradient id="SVGID_3_" gradientUnits="userSpaceOnUse" x1="167.5402" y1="158.7097" x2="769.3589" y2="760.5282" gradientTransform="matrix(1 0 0 -1 0 919.59)">
				<stop  offset="5.586592e-03" style="stop-color:#FFFFFF;stop-opacity:0.4"/>
				<stop  offset="0.5307" style="stop-color:#FFFFFF;stop-opacity:0"/>
				<stop  offset="1" style="stop-color:#FFFFFF;stop-opacity:0.4"/>
			</linearGradient>
			<path class="st3" d="M892.8,427.3c-0.2-3.6-0.6-7.2-1-10.8c-0.4-4.3-1-8.6-1.5-12.8c-0.3-2.9-0.8-5.7-1.2-8.5
				c-1.1-7.1-2.4-14-3.8-20.9c-1.4-7-3-13.8-4.8-20.6c-0.8-3.1-1.6-6.2-2.5-9.2c-0.6-2.1-1.2-4.3-1.9-6.4c-2.4-8.2-5.1-16.4-8-24.3
				c-2.3-6.4-4.9-12.7-7.5-18.9c-0.1-0.1-0.1-0.3-0.2-0.4c-1.4-3.1-2.7-6.3-4.1-9.5C813.8,190.6,737.8,114.6,643.5,72
				c-3.2-1.4-6.3-2.8-9.5-4.1c-0.1,0-0.1-0.1-0.2-0.1c-6.3-2.6-12.6-5.1-18.9-7.4c-0.2-0.1-0.5-0.2-0.7-0.3
				c-6.4-2.3-12.8-4.5-19.3-6.5c-0.3-0.1-0.5-0.2-0.8-0.2c-3.4-1.1-6.8-2-10.2-3c-7-2-14.1-3.8-21.2-5.4c-3.2-0.7-6.4-1.4-9.6-2
				c-3.5-0.7-6.9-1.4-10.4-2c-3.5-0.7-7-1.2-10.5-1.7c-6.7-1-13.5-1.8-20.3-2.6c-3.6-0.4-7.1-0.7-10.8-1
				c-10.8-0.8-21.7-1.3-32.7-1.3c-11,0-22,0.4-32.7,1.3c-3.6,0.2-7.2,0.6-10.8,1c-6.8,0.7-13.6,1.5-20.3,2.6
				c-3.5,0.5-7,1.1-10.5,1.7c-3.5,0.6-7,1.3-10.4,2c-3.2,0.7-6.4,1.4-9.6,2c-7.1,1.7-14.2,3.5-21.2,5.4c-3.4,1-6.8,2-10.2,3
				c-0.3,0.1-0.5,0.1-0.8,0.2c-4.9,1.5-9.9,3.1-14.7,4.9c-4.8,1.7-9.7,3.5-14.5,5.4c-0.1,0-0.2,0.1-0.2,0.1c-3.2,1.3-6.4,2.6-9.6,4
				c-3.1,1.3-6.3,2.7-9.5,4.1c-28.3,12.8-54.9,28.6-79.5,46.9c-2.7,2-5.4,4.1-8.1,6.3c-16.1,12.6-31.3,26.4-45.4,41.2
				c-4,4.2-7.9,8.4-11.7,12.9c-3,3.3-5.9,6.8-8.8,10.2c-4.2,5.2-8.3,10.5-12.4,15.8c-2,2.7-4,5.5-6,8.3c-4,5.6-7.8,11.3-11.5,17
				c-3.7,5.8-7.3,11.6-10.7,17.6c-1.8,3-3.4,6.1-5.2,9.2c-6.5,12-12.4,24.3-17.8,37c-2.7,6.5-5.4,13.1-7.8,19.8
				c-2.3,6.4-4.5,12.8-6.5,19.3c-1.1,3.3-2.1,6.7-3,10c-1,3.4-1.8,6.7-2.7,10.2c-1.7,6.8-3.3,13.6-4.8,20.6
				c-1.4,6.9-2.6,13.9-3.8,20.9c-0.4,2.8-0.8,5.6-1.2,8.5c-0.5,4.2-1.1,8.5-1.5,12.8c-0.3,3.6-0.7,7.1-1,10.8
				C43.3,438,42.9,449,42.9,460c0,11,0.4,22,1.3,32.7c0.2,3.6,0.6,7.2,1,10.8c0.4,4.3,1,8.6,1.5,12.8c0.3,2.9,0.8,5.7,1.2,8.5
				c1.1,7.1,2.4,14,3.8,20.9c1.4,7,3,13.8,4.8,20.6c0.9,3.5,1.8,6.8,2.7,10.2c1,3.4,2,6.7,3,10.1c2,6.5,4.2,12.9,6.5,19.3
				c2.4,6.7,5.1,13.3,7.8,19.8c5.4,12.7,11.3,25,17.8,37c1.7,3.1,3.4,6.1,5.2,9.2c3.4,6,7,11.8,10.7,17.5c3.7,5.8,7.5,11.4,11.5,17
				c2,2.7,4,5.5,6,8.3c4,5.3,8.2,10.7,12.4,15.8c2.9,3.5,5.8,6.9,8.8,10.2c3.8,4.4,7.7,8.7,11.7,12.8c14.1,14.8,29.3,28.6,45.4,41.2
				c2.7,2.1,5.4,4.2,8.1,6.3c24.6,18.4,51.2,34.2,79.5,46.9c3.1,1.4,6.3,2.8,9.5,4.1c3.2,1.4,6.4,2.7,9.6,4c0.1,0,0.1,0.1,0.2,0.1
				c4.8,1.9,9.7,3.7,14.5,5.4c4.8,1.7,9.8,3.3,14.7,4.9c0.3,0.1,0.5,0.2,0.8,0.2c3.4,1.1,6.8,2,10.2,3c7,2,14.1,3.8,21.2,5.4
				c3.2,0.7,6.4,1.4,9.6,2c3.5,0.7,6.9,1.4,10.4,2c3.5,0.7,7,1.2,10.5,1.7c6.7,1,13.5,1.8,20.3,2.6c3.6,0.4,7.1,0.7,10.8,1
				c10.8,0.8,21.7,1.3,32.7,1.3c11,0,22-0.4,32.7-1.3c3.6-0.2,7.2-0.6,10.8-1c6.8-0.7,13.6-1.5,20.3-2.6c3.5-0.5,7-1.1,10.5-1.7
				c3.5-0.6,7-1.3,10.4-2c3.2-0.7,6.4-1.4,9.6-2c7.1-1.7,14.2-3.5,21.2-5.4c3.4-1,6.8-2,10.2-3c0.3-0.1,0.5-0.1,0.8-0.2
				c6.5-2,12.9-4.2,19.3-6.5c0.2-0.1,0.5-0.2,0.7-0.3c0.3-0.1,0.7-0.2,1.1-0.4c5.4-2,10.7-4,15.9-6.2c0.7-0.3,1.3-0.5,2-0.8
				c0.1,0,0.1-0.1,0.2-0.1c3.2-1.3,6.3-2.7,9.5-4.1c94.3-42.6,170.3-118.6,212.9-212.9c1.4-3.2,2.7-6.3,4.1-9.5
				c0.1-0.1,0.1-0.3,0.2-0.4c2.6-6.3,5.2-12.5,7.5-18.9c2.9-8,5.6-16.1,8-24.3c0.7-2.1,1.3-4.3,1.9-6.4c0.9-3,1.7-6.1,2.5-9.2
				c1.7-6.8,3.3-13.6,4.8-20.6c1.4-6.9,2.6-13.9,3.8-20.9c0.4-2.8,0.8-5.7,1.2-8.5c0.5-4.2,1.1-8.5,1.5-12.8c0.4-3.6,0.7-7.1,1-10.8
				c0.8-10.8,1.3-21.7,1.3-32.7C894,449,893.6,438,892.8,427.3z M468.4,852.4C252,852.4,76,676.4,76,460S252,67.6,468.4,67.6
				c216.4,0,392.5,176,392.5,392.5S684.9,852.4,468.4,852.4z"/>
		</g>
		<polygon class="st1" points="566.4,540.9 370.9,540.9 468.4,371.2 		"/>
		
			<radialGradient id="SVGID_4_" cx="468.617" cy="463.585" r="292.8" gradientTransform="matrix(1 0 0 -1 0 919.59)" gradientUnits="userSpaceOnUse">
			<stop  offset="0" style="stop-color:#FFFFFF;stop-opacity:0.4"/>
			<stop  offset="1" style="stop-color:#F0F1F1;stop-opacity:0"/>
		</radialGradient>
		<circle class="st4" cx="468.6" cy="456" r="292.8"/>
	</g>
</g>
</svg>
