<?xml version="1.0" encoding="UTF-8"?>
<svg id="SVGDoc" width="207" height="164" xmlns="http://www.w3.org/2000/svg" version="1.1" xmlns:xlink="http://www.w3.org/1999/xlink" xmlns:avocode="https://avocode.com/" viewBox="0 0 207 164"><defs><linearGradient id="LinearGradient1014" gradientUnits="userSpaceOnUse" x1="103.17000000000002" y1="0" x2="103.17000000000002" y2="163.5300000000002"><stop stop-opacity="1" stop-color="#ffad2d" offset="0"></stop><stop stop-opacity="1" stop-color="#ff7e30" offset="1"></stop></linearGradient></defs><desc>Generated with Avocode.</desc><g><g><title>Trazado 1777</title><path d="M180.8504,76.47646c8.0164,3.52719 14.26921,8.81802 18.75839,15.87248c4.48921,7.05447 6.73381,15.39153 6.73381,25.01118c0,13.78824 -4.32887,24.93105 -12.98659,33.42841c-8.65773,8.49741 -19.72038,12.74611 -33.18795,12.74611c-13.46757,0.00002 -24.61037,-4.32884 -33.42843,-12.9866c-8.81807,-8.65771 -13.22709,-19.72034 -13.22708,-33.18793c-0.00001,-6.41313 0.80163,-12.82625 2.40491,-19.2394c1.60328,-6.41313 5.1305,-16.03282 10.58167,-28.85907l27.8971,-69.26175h47.61749zM67.33803,76.47646c8.01641,3.52719 14.26921,8.81802 18.7584,15.87248c4.48919,7.05447 6.73378,15.39153 6.73379,25.01118c-0.00001,13.78824 -4.32887,24.93105 -12.98659,33.42841c-8.65772,8.49741 -19.72036,12.74611 -33.18793,12.74611c-13.46758,0.00002 -24.61039,-4.32884 -33.42844,-12.9866c-8.81805,-8.65771 -13.22708,-19.72034 -13.22708,-33.18793c0,-6.41313 0.80164,-12.82625 2.40493,-19.2394c1.60328,-6.41313 5.1305,-16.03282 10.58167,-28.85907l27.8971,-69.26175h47.61748z" fill="url(#LinearGradient1014)"></path></g></g></svg>