<?xml version="1.0" encoding="UTF-8"?>
<svg id="SVGDoc" width="207" height="164" xmlns="http://www.w3.org/2000/svg" version="1.1" xmlns:xlink="http://www.w3.org/1999/xlink" xmlns:avocode="https://avocode.com/" viewBox="0 0 207 164"><defs><linearGradient id="LinearGradient1026" gradientUnits="userSpaceOnUse" x1="103.41000000000008" y1="0.4699999999997999" x2="103.41000000000008" y2="164"><stop stop-opacity="1" stop-color="#ffad2d" offset="0"></stop><stop stop-opacity="1" stop-color="#ff7e30" offset="1"></stop></linearGradient></defs><desc>Generated with Avocode.</desc><g><g><title>Trazado 1776</title><path d="M160.40198,0.4653c13.46757,0.00003 24.5302,4.24872 33.18793,12.74612c8.65771,8.49741 12.98657,19.6402 12.98657,33.4284c0,6.41316 -0.80164,12.82628 -2.40491,19.23941c-1.60329,6.41312 -4.97018,16.03282 -10.10068,28.85907l-27.89709,69.26179h-47.61749l20.68232,-75.99557c-8.0164,-3.52722 -14.2692,-8.81802 -18.75838,-15.8725c-4.48919,-7.05444 -6.73378,-15.55183 -6.73378,-25.4922c0,-13.7882 4.40901,-24.93099 13.22706,-33.4284c8.81805,-8.49741 19.96086,-12.74612 33.42844,-12.74612zM46.88961,0.4653c13.46757,0.00003 24.5302,4.24872 33.18792,12.74612c8.65771,8.49741 12.98658,19.6402 12.98659,33.4284c-0.00001,6.41316 -0.80165,12.82628 -2.40492,19.23941c-1.60328,6.41312 -4.97017,16.03282 -10.10067,28.85907l-27.89711,69.26179h-47.61747l20.68234,-75.99557c-8.01642,-3.52722 -14.26922,-8.81802 -18.7584,-15.8725c-4.48919,-7.05444 -6.73379,-15.55183 -6.73379,-25.4922c0,-13.7882 4.40903,-24.93099 13.22708,-33.4284c8.81805,-8.49741 19.96085,-12.74612 33.42842,-12.74612z" fill="url(#LinearGradient1026)"></path></g></g></svg>