<svg xmlns="http://www.w3.org/2000/svg" width="280" height="34" viewBox="0 0 280 34"><g><g><g><g><path fill="#fff" d="M51.237 17.626l3.039-7.564 3.039 7.564zm9.893 9.522h6.956L57.62 3.512h-6.585L40.6 27.148h6.821l1.857-4.592h9.995z"/></g><g><path fill="#fff" d="M81.93 8.543v5.774a11.645 11.645 0 0 0-1.452-.101c-2.6 0-4.39 1.316-4.39 4.524v8.408h-6.415V8.847h6.111v2.195c1.317-1.655 3.445-2.5 6.146-2.5z"/></g><g><path fill="#fff" d="M94.727 22.353c-2.16 0-3.85-1.587-3.85-4.39 0-2.768 1.69-4.321 3.85-4.321 2.161 0 3.85 1.553 3.85 4.322 0 2.802-1.689 4.39-3.85 4.39zm10.332-4.39c0-5.807-4.018-9.42-8.981-9.42-2.128 0-3.85.608-5.1 1.89v-8.34h-6.415v25.055h6.112v-1.823c1.216 1.452 3.005 2.127 5.403 2.127 4.963 0 8.981-3.647 8.981-9.488z"/></g><g><path fill="#fff" d="M108.03 8.847h6.416v18.301h-6.415zm-.709-5.437c0-1.924 1.554-3.41 3.917-3.41 2.364 0 3.917 1.384 3.917 3.309 0 2.026-1.553 3.512-3.917 3.512-2.363 0-3.917-1.486-3.917-3.41z"/></g><g><path fill="#fff" d="M131.228 26.405c-1.115.71-2.77 1.047-4.458 1.047-4.693 0-7.428-2.296-7.428-6.99v-6.145h-2.668V9.522h2.668v-4.76h6.416v4.76h4.186v4.795h-4.186v6.078c0 1.35.776 2.094 1.924 2.094.709 0 1.418-.203 1.958-.574z"/></g><g><path fill="#fff" d="M145.949 8.543v5.774a11.643 11.643 0 0 0-1.451-.101c-2.6 0-4.39 1.316-4.39 4.524v8.408h-6.416V8.847h6.112v2.195c1.318-1.655 3.444-2.5 6.145-2.5z"/></g><g><path fill="#fff" d="M159.185 21.273c-.506 1.452-1.755 2.127-3.174 2.127-1.519 0-2.397-.777-2.397-1.857 0-1.114.743-1.857 2.802-1.857h2.77v1.587zm6.416-4.288c0-5.808-3.41-8.442-9.353-8.442-2.87 0-5.977.743-8.07 2.127l2.16 4.356c1.25-.98 3.208-1.587 4.965-1.587 2.532 0 3.781 1.047 3.882 2.904h-3.646c-5.673 0-8.138 2.093-8.138 5.47 0 3.174 2.431 5.64 6.82 5.64 2.668 0 4.492-.913 5.404-2.668v2.363h5.976V16.985z"/></g><g><path fill="#fff" d="M179.276 21.104c-2.296 0-4.018-1.52-4.018-3.748 0-2.229 1.722-3.714 4.018-3.714s3.984 1.485 3.984 3.714-1.688 3.748-3.984 3.748zm4.22-12.257v2.228c-1.248-1.722-3.207-2.532-5.74-2.532-4.862 0-8.981 3.444-8.981 8.813 0 5.403 4.119 8.847 8.982 8.847 2.33 0 4.186-.71 5.436-2.161v.608c0 2.87-1.452 4.423-4.897 4.423-2.16 0-4.659-.743-6.178-1.958l-2.33 4.49c2.228 1.588 5.57 2.398 9.082 2.398 6.822 0 10.738-3.275 10.738-10.198V8.847z"/></g><g><path fill="#fff" d="M202.676 13.101c1.992 0 3.41 1.216 3.748 3.14h-7.496c.372-1.924 1.756-3.14 3.748-3.14zm9.657 6.517c.034-.506.101-1.114.101-1.587 0-6.044-4.389-9.488-9.791-9.488-5.774 0-10.063 3.917-10.063 9.42 0 5.471 4.221 9.49 10.738 9.49 3.477 0 6.044-1.014 7.8-2.972l-3.377-3.512c-1.249 1.08-2.431 1.587-4.22 1.587-2.364 0-3.952-1.08-4.491-2.938h13.304z"/></g><g><path fill="#fff" d="M265.446 25.122c1.453 1.25 4.289 2.195 7.227 2.195 4.626 0 7.327-1.992 7.327-5.065 0-6.82-11.514-3.208-11.514-8.003 0-1.688 1.418-2.937 4.626-2.937 1.823 0 3.68.439 5.233 1.52l1.047-1.925c-1.486-1.013-3.984-1.655-6.28-1.655-4.526 0-7.024 2.161-7.024 5.065 0 7.023 11.515 3.376 11.515 8.002 0 1.756-1.385 2.904-4.762 2.904-2.498 0-4.896-.877-6.314-1.992l-1.08 1.891zM254 25.19c-3.782 0-6.618-2.77-6.618-6.922 0-4.12 2.836-6.923 6.618-6.923 3.748 0 6.618 2.803 6.618 6.923 0 4.153-2.87 6.922-6.618 6.922zm9.015-6.922c0-5.37-3.782-9.016-8.847-9.016-2.937 0-5.402 1.283-6.854 3.647V9.387h-2.296V33.7h2.397v-9.894c1.486 2.296 3.917 3.512 6.753 3.512 5.065 0 8.847-3.647 8.847-9.05zm-35.487 6.854c-5.707 0-9.961-4.153-9.961-9.792s4.254-9.792 9.96-9.792c5.673 0 9.894 4.153 9.894 9.792s-4.221 9.792-9.893 9.792zm0 2.229c7.09 0 12.392-5.099 12.392-12.021 0-6.922-5.302-12.02-12.392-12.02-7.16 0-12.426 5.132-12.426 12.02s5.267 12.02 12.426 12.02z"/></g></g><g><g><g><g><path fill="#fff" d="M24.036 19.679l-1.357-2.365-1.438-2.49-.957-1.663-5.664-9.813c.625-.09 1.265-.14 1.915-.14 7.35 0 13.327 5.98 13.327 13.329 0 1.082-.131 2.134-.374 3.142zm-7.961-5.796l.46-.795 1.895 3.285.96 1.66.95 1.646h-7.597l3.343-5.79zm-4.652-9.655l3.269 5.66-8.61 14.907a13.258 13.258 0 0 1-2.873-8.258c0-5.54 3.396-10.3 8.214-12.309zm5.112 25.637c-3.04 0-5.845-1.024-8.09-2.744l2.446-4.233h17.36c-2.26 4.152-6.665 6.977-11.716 6.977zm16.488-14.6a16.139 16.139 0 0 0-.287-2.06 13.743 13.743 0 0 0-.185-.8c-.032-.12-.062-.24-.097-.358a16.193 16.193 0 0 0-.677-1.93l-.007-.016-.16-.368a16.589 16.589 0 0 0-8.272-8.272c-.122-.053-.245-.109-.367-.16l-.007-.002a16.666 16.666 0 0 0-.735-.289L22.2 1a16.847 16.847 0 0 0-.781-.264c-.132-.041-.264-.078-.396-.118a19.67 19.67 0 0 0-.825-.21l-.375-.079a11.315 11.315 0 0 0-.404-.076 17.422 17.422 0 0 0-1.195-.166c-.14-.014-.278-.028-.419-.037a16.54 16.54 0 0 0-2.543 0 17.456 17.456 0 0 0-2.018.28l-.375.078c-.277.065-.552.134-.825.21-.132.04-.264.077-.396.118a14.91 14.91 0 0 0-1.167.41l-.01.002c-.124.05-.249.101-.374.155-.122.05-.245.106-.367.16a16.465 16.465 0 0 0-3.403 2.066 16.323 16.323 0 0 0-2.22 2.101c-.115.13-.229.264-.342.398-.164.201-.324.407-.48.615-.08.106-.158.215-.234.321-.157.215-.306.437-.446.662-.146.221-.285.45-.414.682-.07.117-.134.235-.201.356a16.484 16.484 0 0 0-1.905 6.184c-.014.139-.028.277-.037.418a16.55 16.55 0 0 0 0 2.543c.009.141.023.28.037.419a17.54 17.54 0 0 0 .104.827c.043.276.092.546.145.814.053.268.116.534.185.8l.106.395c.038.132.077.262.118.391a15.952 15.952 0 0 0 .555 1.519c.208.493.44.973.692 1.438.067.12.131.238.2.356.13.231.269.46.415.682.14.224.289.446.446.661.076.107.155.215.233.322.157.208.317.413.481.615a19.476 19.476 0 0 0 .798.897 16.321 16.321 0 0 0 2.078 1.845 16.472 16.472 0 0 0 3.089 1.824c.122.053.245.108.367.16l.375.154c.002 0 .004.002.009.002a18.538 18.538 0 0 0 1.135.4c.012.005.02.007.032.01.132.041.264.078.396.117.273.077.548.146.825.21l.375.08c.134.027.268.053.404.076a17.489 17.489 0 0 0 1.195.166c.14.014.278.028.42.037a16.526 16.526 0 0 0 2.96-.037c.266-.028.528-.06.789-.1.136-.02.273-.04.407-.066.136-.023.27-.049.404-.077l.375-.078c.277-.065.552-.134.825-.21.132-.04.264-.077.396-.119a16.886 16.886 0 0 0 .781-.264l.028-.01c.014-.005.028-.01.041-.017.208-.074.414-.155.618-.24.025-.012.05-.021.076-.033l.007-.002c.122-.05.245-.106.367-.16a16.589 16.589 0 0 0 8.272-8.271l.16-.368.007-.016a15.75 15.75 0 0 0 .677-1.93c.035-.118.065-.239.097-.359a15.863 15.863 0 0 0 .472-2.86 16.426 16.426 0 0 0 0-2.543z"/></g></g><g><path fill="#fff" d="M16.535 31.786c-8.409 0-15.25-6.84-15.25-15.25 0-8.407 6.841-15.248 15.25-15.248 8.41 0 15.251 6.84 15.251 15.249 0 8.408-6.84 15.249-15.251 15.249zm16.488-16.52a16.139 16.139 0 0 0-.472-2.86c-.032-.12-.062-.24-.097-.359a16.193 16.193 0 0 0-.677-1.93l-.007-.016-.16-.368a16.589 16.589 0 0 0-8.272-8.272c-.122-.053-.245-.109-.367-.16l-.007-.002a16.666 16.666 0 0 0-.735-.289L22.2 1a16.847 16.847 0 0 0-.781-.264c-.132-.041-.264-.078-.396-.118a19.67 19.67 0 0 0-.825-.21l-.375-.079a11.315 11.315 0 0 0-.404-.076 17.422 17.422 0 0 0-1.195-.166c-.14-.014-.278-.028-.419-.037a16.54 16.54 0 0 0-2.543 0 17.456 17.456 0 0 0-2.018.28l-.375.078c-.277.065-.552.134-.825.21-.132.04-.264.077-.396.118a14.91 14.91 0 0 0-1.167.41l-.01.002c-.124.05-.249.101-.374.155-.122.05-.245.106-.367.16a16.465 16.465 0 0 0-3.403 2.066 16.323 16.323 0 0 0-2.22 2.101c-.115.13-.229.264-.342.398-.164.201-.324.407-.48.615-.08.106-.158.215-.234.321a15.634 15.634 0 0 0-.86 1.344c-.07.117-.134.235-.201.356a16.484 16.484 0 0 0-1.905 6.184c-.014.139-.028.277-.037.418a16.55 16.55 0 0 0 0 2.543c.009.141.023.28.037.419a17.54 17.54 0 0 0 .104.827c.043.276.092.546.145.814a17.59 17.59 0 0 0 .291 1.195 16.843 16.843 0 0 0 .673 1.91c.208.493.44.973.692 1.438.067.12.131.238.2.356a15.598 15.598 0 0 0 .86 1.343l.234.322c.157.208.317.413.481.615a19.476 19.476 0 0 0 .798.897 16.321 16.321 0 0 0 2.078 1.845 16.472 16.472 0 0 0 3.089 1.824c.122.053.245.108.367.16l.375.154c.002 0 .004.002.009.002a18.538 18.538 0 0 0 1.135.4c.012.005.02.007.032.01.132.041.264.078.396.117.273.077.548.146.825.21l.375.08c.134.027.268.053.404.076a17.489 17.489 0 0 0 1.195.166c.14.014.278.028.42.037a16.526 16.526 0 0 0 2.96-.037c.266-.028.528-.06.789-.1.136-.02.273-.04.407-.066.136-.023.27-.049.404-.077l.375-.078c.277-.065.552-.134.825-.21.132-.04.264-.077.396-.119a16.886 16.886 0 0 0 .781-.264l.028-.01c.014-.005.028-.01.041-.017.208-.076.414-.155.618-.24.025-.012.05-.021.076-.033l.007-.002c.122-.05.245-.106.367-.16a16.589 16.589 0 0 0 8.272-8.271l.16-.368.007-.016a15.75 15.75 0 0 0 .677-1.93c.035-.118.065-.239.097-.359a17.29 17.29 0 0 0 .33-1.614 16.123 16.123 0 0 0 .14-1.246 16.426 16.426 0 0 0 .002-2.543z"/></g></g></g></g></g></svg>